<?xml version="1.0" encoding="UTF-8" standalone="no"?>
<!DOCTYPE svg PUBLIC "-//W3C//DTD SVG 1.1//EN"
 "http://www.w3.org/Graphics/SVG/1.1/DTD/svg11.dtd">
<!-- Generated by graphviz version 2.47.0 (20210316.0004)
 -->
<!-- Title: dependencies Pages: 1 -->
<svg width="504pt" height="211pt"
 viewBox="0.00 0.00 504.00 211.00" xmlns="http://www.w3.org/2000/svg" xmlns:xlink="http://www.w3.org/1999/xlink">
<g id="graph0" class="graph" transform="scale(1 1) rotate(0) translate(4 207)">
<title>dependencies</title>
<polygon fill="white" stroke="transparent" points="-4,4 -4,-207 500,-207 500,4 -4,4"/>
<text text-anchor="start" x="227.01" y="-42.4" font-family="Times-12" font-weight="bold" font-size="14.00">Legend</text>
<polygon fill="#ffffb3" stroke="transparent" points="14,-10 14,-30 34,-30 34,-10 14,-10"/>
<text text-anchor="start" x="37.63" y="-15.4" font-family="Times-12" font-size="14.00"> &#160;Declarations</text>
<polygon fill="#8dd3c7" stroke="transparent" points="127,-10 127,-30 147,-30 147,-10 127,-10"/>
<text text-anchor="start" x="150.73" y="-15.4" font-family="Times-12" font-size="14.00"> &#160;Module</text>
<polygon fill="#80b1d3" stroke="transparent" points="213,-10 213,-30 233,-30 233,-10 213,-10"/>
<text text-anchor="start" x="236.78" y="-15.4" font-family="Times-12" font-size="14.00"> &#160;Bootstrap</text>
<polygon fill="#fdb462" stroke="transparent" points="310,-10 310,-30 330,-30 330,-10 310,-10"/>
<text text-anchor="start" x="333.67" y="-15.4" font-family="Times-12" font-size="14.00"> &#160;Providers</text>
<polygon fill="#fb8072" stroke="transparent" points="406,-10 406,-30 426,-30 426,-10 406,-10"/>
<text text-anchor="start" x="429.73" y="-15.4" font-family="Times-12" font-size="14.00"> &#160;Exports</text>
<g id="clust1" class="cluster">
<title>cluster_AdBrowserModule</title>
<polygon fill="none" stroke="black" stroke-dasharray="1,5" points="97,-70 97,-195 399,-195 399,-70 97,-70"/>
</g>
<g id="clust3" class="cluster">
<title>cluster_AdBrowserModule_imports</title>
<polygon fill="none" stroke="black" points="105,-78 105,-130 391,-130 391,-78 105,-78"/>
</g>
<!-- AdBrowserComponent -->
<g id="node1" class="node">
<title>AdBrowserComponent</title>
<polygon fill="#8dd3c7" stroke="black" points="382.86,-122 379.86,-126 358.86,-126 355.86,-122 237.14,-122 237.14,-86 382.86,-86 382.86,-122"/>
<text text-anchor="middle" x="310" y="-99.8" font-family="Times,serif" font-size="14.00">AdBrowserComponent</text>
</g>
<!-- AdBrowserModule -->
<g id="node3" class="node">
<title>AdBrowserModule</title>
<polygon fill="#8dd3c7" stroke="black" points="300.08,-187 297.08,-191 276.08,-191 273.08,-187 175.92,-187 175.92,-151 300.08,-151 300.08,-187"/>
<text text-anchor="middle" x="238" y="-164.8" font-family="Times,serif" font-size="14.00">AdBrowserModule</text>
</g>
<!-- AdBrowserComponent&#45;&gt;AdBrowserModule -->
<g id="edge1" class="edge">
<title>AdBrowserComponent&#45;&gt;AdBrowserModule</title>
<path fill="none" stroke="black" d="M268.55,-122.11C268.55,-122.11 268.55,-140.99 268.55,-140.99"/>
<polygon fill="black" stroke="black" points="265.05,-140.99 268.55,-150.99 272.05,-140.99 265.05,-140.99"/>
</g>
<!-- MaterialModule -->
<g id="node2" class="node">
<title>MaterialModule</title>
<polygon fill="#8dd3c7" stroke="black" points="219.47,-122 216.47,-126 195.47,-126 192.47,-122 112.53,-122 112.53,-86 219.47,-86 219.47,-122"/>
<text text-anchor="middle" x="166" y="-99.8" font-family="Times,serif" font-size="14.00">MaterialModule</text>
</g>
<!-- MaterialModule&#45;&gt;AdBrowserModule -->
<g id="edge2" class="edge">
<title>MaterialModule&#45;&gt;AdBrowserModule</title>
<path fill="none" stroke="black" d="M197.72,-122.11C197.72,-122.11 197.72,-140.99 197.72,-140.99"/>
<polygon fill="black" stroke="black" points="194.22,-140.99 197.72,-150.99 201.22,-140.99 194.22,-140.99"/>
</g>
</g>
</svg>
