<?xml version="1.0" encoding="UTF-8" standalone="no"?>
<!DOCTYPE svg PUBLIC "-//W3C//DTD SVG 1.1//EN"
 "http://www.w3.org/Graphics/SVG/1.1/DTD/svg11.dtd">
<!-- Generated by graphviz version 2.47.0 (20210316.0004)
 -->
<!-- Title: dependencies Pages: 1 -->
<svg width="653pt" height="284pt"
 viewBox="0.00 0.00 653.00 284.00" xmlns="http://www.w3.org/2000/svg" xmlns:xlink="http://www.w3.org/1999/xlink">
<g id="graph0" class="graph" transform="scale(1 1) rotate(0) translate(4 280)">
<title>dependencies</title>
<polygon fill="white" stroke="transparent" points="-4,4 -4,-280 649,-280 649,4 -4,4"/>
<text text-anchor="start" x="301.51" y="-42.4" font-family="Times-12" font-weight="bold" font-size="14.00">Legend</text>
<polygon fill="#ffffb3" stroke="transparent" points="88.5,-10 88.5,-30 108.5,-30 108.5,-10 88.5,-10"/>
<text text-anchor="start" x="112.13" y="-15.4" font-family="Times-12" font-size="14.00"> &#160;Declarations</text>
<polygon fill="#8dd3c7" stroke="transparent" points="201.5,-10 201.5,-30 221.5,-30 221.5,-10 201.5,-10"/>
<text text-anchor="start" x="225.23" y="-15.4" font-family="Times-12" font-size="14.00"> &#160;Module</text>
<polygon fill="#80b1d3" stroke="transparent" points="287.5,-10 287.5,-30 307.5,-30 307.5,-10 287.5,-10"/>
<text text-anchor="start" x="311.28" y="-15.4" font-family="Times-12" font-size="14.00"> &#160;Bootstrap</text>
<polygon fill="#fdb462" stroke="transparent" points="384.5,-10 384.5,-30 404.5,-30 404.5,-10 384.5,-10"/>
<text text-anchor="start" x="408.17" y="-15.4" font-family="Times-12" font-size="14.00"> &#160;Providers</text>
<polygon fill="#fb8072" stroke="transparent" points="480.5,-10 480.5,-30 500.5,-30 500.5,-10 480.5,-10"/>
<text text-anchor="start" x="504.23" y="-15.4" font-family="Times-12" font-size="14.00"> &#160;Exports</text>
<g id="clust1" class="cluster">
<title>cluster_CommonTestModule</title>
<polygon fill="none" stroke="black" stroke-dasharray="1,5" points="8,-70 8,-268 637,-268 637,-70 8,-70"/>
</g>
<g id="clust4" class="cluster">
<title>cluster_CommonTestModule_exports</title>
<polygon fill="none" stroke="black" points="16,-208 16,-260 629,-260 629,-208 16,-208"/>
</g>
<g id="clust3" class="cluster">
<title>cluster_CommonTestModule_imports</title>
<polygon fill="none" stroke="black" points="21,-78 21,-130 624,-130 624,-78 21,-78"/>
</g>
<!-- MockAppCardComponent -->
<g id="node1" class="node">
<title>MockAppCardComponent</title>
<polygon fill="#8dd3c7" stroke="black" points="615.81,-122 612.81,-126 591.81,-126 588.81,-122 450.19,-122 450.19,-86 615.81,-86 615.81,-122"/>
<text text-anchor="middle" x="533" y="-99.8" font-family="Times,serif" font-size="14.00">MockAppCardComponent</text>
</g>
<!-- CommonTestModule -->
<g id="node4" class="node">
<title>CommonTestModule</title>
<polygon fill="#8dd3c7" stroke="black" points="408.77,-187 405.77,-191 384.77,-191 381.77,-187 273.23,-187 273.23,-151 408.77,-151 408.77,-187"/>
<text text-anchor="middle" x="341" y="-164.8" font-family="Times,serif" font-size="14.00">CommonTestModule</text>
</g>
<!-- MockAppCardComponent&#45;&gt;CommonTestModule -->
<g id="edge1" class="edge">
<title>MockAppCardComponent&#45;&gt;CommonTestModule</title>
<path fill="none" stroke="black" d="M561.3,-122.02C561.3,-139.37 561.3,-163 561.3,-163 561.3,-163 418.9,-163 418.9,-163"/>
<polygon fill="black" stroke="black" points="418.9,-159.5 408.9,-163 418.9,-166.5 418.9,-159.5"/>
</g>
<!-- MockMainLayoutComponent -->
<g id="node2" class="node">
<title>MockMainLayoutComponent</title>
<polygon fill="#8dd3c7" stroke="black" points="432.7,-122 429.7,-126 408.7,-126 405.7,-122 249.3,-122 249.3,-86 432.7,-86 432.7,-122"/>
<text text-anchor="middle" x="341" y="-99.8" font-family="Times,serif" font-size="14.00">MockMainLayoutComponent</text>
</g>
<!-- MockMainLayoutComponent&#45;&gt;CommonTestModule -->
<g id="edge2" class="edge">
<title>MockMainLayoutComponent&#45;&gt;CommonTestModule</title>
<path fill="none" stroke="black" d="M341,-122.11C341,-122.11 341,-140.99 341,-140.99"/>
<polygon fill="black" stroke="black" points="337.5,-140.99 341,-150.99 344.5,-140.99 337.5,-140.99"/>
</g>
<!-- MockSkeletonLoaderComponent -->
<g id="node3" class="node">
<title>MockSkeletonLoaderComponent</title>
<polygon fill="#8dd3c7" stroke="black" points="231.13,-122 228.13,-126 207.13,-126 204.13,-122 28.87,-122 28.87,-86 231.13,-86 231.13,-122"/>
<text text-anchor="middle" x="130" y="-99.8" font-family="Times,serif" font-size="14.00">MockSkeletonLoaderComponent</text>
</g>
<!-- MockSkeletonLoaderComponent&#45;&gt;CommonTestModule -->
<g id="edge3" class="edge">
<title>MockSkeletonLoaderComponent&#45;&gt;CommonTestModule</title>
<path fill="none" stroke="black" d="M162.94,-122.02C162.94,-139.37 162.94,-163 162.94,-163 162.94,-163 263.17,-163 263.17,-163"/>
<polygon fill="black" stroke="black" points="263.17,-166.5 273.17,-163 263.17,-159.5 263.17,-166.5"/>
</g>
<!-- MockAppCardComponent  -->
<g id="node5" class="node">
<title>MockAppCardComponent </title>
<polygon fill="#fb8072" stroke="black" points="621.31,-252 452.69,-252 452.69,-216 621.31,-216 621.31,-252"/>
<text text-anchor="middle" x="537" y="-229.8" font-family="Times,serif" font-size="14.00">MockAppCardComponent </text>
</g>
<!-- CommonTestModule&#45;&gt;MockAppCardComponent  -->
<g id="edge4" class="edge">
<title>CommonTestModule&#45;&gt;MockAppCardComponent </title>
<path fill="none" stroke="black" stroke-dasharray="5,2" d="M408.98,-175C454.81,-175 506.95,-175 506.95,-175 506.95,-175 506.95,-205.98 506.95,-205.98"/>
<polygon fill="black" stroke="black" points="503.45,-205.98 506.95,-215.98 510.45,-205.98 503.45,-205.98"/>
</g>
<!-- MockMainLayoutComponent  -->
<g id="node6" class="node">
<title>MockMainLayoutComponent </title>
<polygon fill="#fb8072" stroke="black" points="434.2,-252 247.8,-252 247.8,-216 434.2,-216 434.2,-252"/>
<text text-anchor="middle" x="341" y="-229.8" font-family="Times,serif" font-size="14.00">MockMainLayoutComponent </text>
</g>
<!-- CommonTestModule&#45;&gt;MockMainLayoutComponent  -->
<g id="edge5" class="edge">
<title>CommonTestModule&#45;&gt;MockMainLayoutComponent </title>
<path fill="none" stroke="black" stroke-dasharray="5,2" d="M341,-187.11C341,-187.11 341,-205.99 341,-205.99"/>
<polygon fill="black" stroke="black" points="337.5,-205.99 341,-215.99 344.5,-205.99 337.5,-205.99"/>
</g>
<!-- MockSkeletonLoaderComponent  -->
<g id="node7" class="node">
<title>MockSkeletonLoaderComponent </title>
<polygon fill="#fb8072" stroke="black" points="230.13,-252 23.87,-252 23.87,-216 230.13,-216 230.13,-252"/>
<text text-anchor="middle" x="127" y="-229.8" font-family="Times,serif" font-size="14.00">MockSkeletonLoaderComponent </text>
</g>
<!-- CommonTestModule&#45;&gt;MockSkeletonLoaderComponent  -->
<g id="edge6" class="edge">
<title>CommonTestModule&#45;&gt;MockSkeletonLoaderComponent </title>
<path fill="none" stroke="black" stroke-dasharray="5,2" d="M273.03,-175C200.47,-175 95.81,-175 95.81,-175 95.81,-175 95.81,-205.98 95.81,-205.98"/>
<polygon fill="black" stroke="black" points="92.31,-205.98 95.81,-215.98 99.31,-205.98 92.31,-205.98"/>
</g>
</g>
</svg>
