<?xml version="1.0" encoding="UTF-8" standalone="no"?>
<!DOCTYPE svg PUBLIC "-//W3C//DTD SVG 1.1//EN"
 "http://www.w3.org/Graphics/SVG/1.1/DTD/svg11.dtd">
<!-- Generated by graphviz version 2.47.0 (20210316.0004)
 -->
<!-- Title: dependencies Pages: 1 -->
<svg width="1484pt" height="211pt"
 viewBox="0.00 0.00 1484.00 211.00" xmlns="http://www.w3.org/2000/svg" xmlns:xlink="http://www.w3.org/1999/xlink">
<g id="graph0" class="graph" transform="scale(1 1) rotate(0) translate(4 207)">
<title>dependencies</title>
<polygon fill="white" stroke="transparent" points="-4,4 -4,-207 1480,-207 1480,4 -4,4"/>
<text text-anchor="start" x="717.01" y="-42.4" font-family="Times-12" font-weight="bold" font-size="14.00">Legend</text>
<polygon fill="#ffffb3" stroke="transparent" points="504,-10 504,-30 524,-30 524,-10 504,-10"/>
<text text-anchor="start" x="527.63" y="-15.4" font-family="Times-12" font-size="14.00"> &#160;Declarations</text>
<polygon fill="#8dd3c7" stroke="transparent" points="617,-10 617,-30 637,-30 637,-10 617,-10"/>
<text text-anchor="start" x="640.73" y="-15.4" font-family="Times-12" font-size="14.00"> &#160;Module</text>
<polygon fill="#80b1d3" stroke="transparent" points="703,-10 703,-30 723,-30 723,-10 703,-10"/>
<text text-anchor="start" x="726.78" y="-15.4" font-family="Times-12" font-size="14.00"> &#160;Bootstrap</text>
<polygon fill="#fdb462" stroke="transparent" points="800,-10 800,-30 820,-30 820,-10 800,-10"/>
<text text-anchor="start" x="823.67" y="-15.4" font-family="Times-12" font-size="14.00"> &#160;Providers</text>
<polygon fill="#fb8072" stroke="transparent" points="896,-10 896,-30 916,-30 916,-10 896,-10"/>
<text text-anchor="start" x="919.73" y="-15.4" font-family="Times-12" font-size="14.00"> &#160;Exports</text>
<g id="clust1" class="cluster">
<title>cluster_WalletModule</title>
<polygon fill="none" stroke="black" stroke-dasharray="1,5" points="8,-70 8,-195 1468,-195 1468,-70 8,-70"/>
</g>
<g id="clust3" class="cluster">
<title>cluster_WalletModule_imports</title>
<polygon fill="none" stroke="black" points="16,-78 16,-130 1460,-130 1460,-78 16,-78"/>
</g>
<!-- AddPaymentMethodDialogComponent -->
<g id="node1" class="node">
<title>AddPaymentMethodDialogComponent</title>
<polygon fill="#8dd3c7" stroke="black" points="1452.08,-122 1449.08,-126 1428.08,-126 1425.08,-122 1215.92,-122 1215.92,-86 1452.08,-86 1452.08,-122"/>
<text text-anchor="middle" x="1334" y="-99.8" font-family="Times,serif" font-size="14.00">AddPaymentMethodDialogComponent</text>
</g>
<!-- WalletModule -->
<g id="node9" class="node">
<title>WalletModule</title>
<polygon fill="#8dd3c7" stroke="black" points="792.37,-187 789.37,-191 768.37,-191 765.37,-187 695.63,-187 695.63,-151 792.37,-151 792.37,-187"/>
<text text-anchor="middle" x="744" y="-164.8" font-family="Times,serif" font-size="14.00">WalletModule</text>
</g>
<!-- AddPaymentMethodDialogComponent&#45;&gt;WalletModule -->
<g id="edge1" class="edge">
<title>AddPaymentMethodDialogComponent&#45;&gt;WalletModule</title>
<path fill="none" stroke="black" d="M1334,-122.29C1334,-144.21 1334,-178 1334,-178 1334,-178 802.53,-178 802.53,-178"/>
<polygon fill="black" stroke="black" points="802.53,-174.5 792.53,-178 802.53,-181.5 802.53,-174.5"/>
</g>
<!-- DepositDialogComponent -->
<g id="node2" class="node">
<title>DepositDialogComponent</title>
<polygon fill="#8dd3c7" stroke="black" points="1197.48,-122 1194.48,-126 1173.48,-126 1170.48,-122 1034.52,-122 1034.52,-86 1197.48,-86 1197.48,-122"/>
<text text-anchor="middle" x="1116" y="-99.8" font-family="Times,serif" font-size="14.00">DepositDialogComponent</text>
</g>
<!-- DepositDialogComponent&#45;&gt;WalletModule -->
<g id="edge2" class="edge">
<title>DepositDialogComponent&#45;&gt;WalletModule</title>
<path fill="none" stroke="black" d="M1116,-122.11C1116,-141.34 1116,-169 1116,-169 1116,-169 802.63,-169 802.63,-169"/>
<polygon fill="black" stroke="black" points="802.63,-165.5 792.63,-169 802.63,-172.5 802.63,-165.5"/>
</g>
<!-- EmeraldModule -->
<g id="node3" class="node">
<title>EmeraldModule</title>
<polygon fill="#8dd3c7" stroke="black" points="1016.47,-122 1013.47,-126 992.47,-126 989.47,-122 909.53,-122 909.53,-86 1016.47,-86 1016.47,-122"/>
<text text-anchor="middle" x="963" y="-99.8" font-family="Times,serif" font-size="14.00">EmeraldModule</text>
</g>
<!-- EmeraldModule&#45;&gt;WalletModule -->
<g id="edge3" class="edge">
<title>EmeraldModule&#45;&gt;WalletModule</title>
<path fill="none" stroke="black" d="M963,-122.03C963,-138.4 963,-160 963,-160 963,-160 802.6,-160 802.6,-160"/>
<polygon fill="black" stroke="black" points="802.6,-156.5 792.6,-160 802.6,-163.5 802.6,-156.5"/>
</g>
<!-- QRCodeModule -->
<g id="node4" class="node">
<title>QRCodeModule</title>
<polygon fill="#8dd3c7" stroke="black" points="891.05,-122 888.05,-126 867.05,-126 864.05,-122 782.95,-122 782.95,-86 891.05,-86 891.05,-122"/>
<text text-anchor="middle" x="837" y="-99.8" font-family="Times,serif" font-size="14.00">QRCodeModule</text>
</g>
<!-- QRCodeModule&#45;&gt;WalletModule -->
<g id="edge4" class="edge">
<title>QRCodeModule&#45;&gt;WalletModule</title>
<path fill="none" stroke="black" d="M787.58,-122.11C787.58,-122.11 787.58,-140.99 787.58,-140.99"/>
<polygon fill="black" stroke="black" points="784.08,-140.99 787.58,-150.99 791.08,-140.99 784.08,-140.99"/>
</g>
<!-- TransactionDetailsDialogComponent -->
<g id="node5" class="node">
<title>TransactionDetailsDialogComponent</title>
<polygon fill="#8dd3c7" stroke="black" points="764.67,-122 761.67,-126 740.67,-126 737.67,-122 539.33,-122 539.33,-86 764.67,-86 764.67,-122"/>
<text text-anchor="middle" x="652" y="-99.8" font-family="Times,serif" font-size="14.00">TransactionDetailsDialogComponent</text>
</g>
<!-- TransactionDetailsDialogComponent&#45;&gt;WalletModule -->
<g id="edge5" class="edge">
<title>TransactionDetailsDialogComponent&#45;&gt;WalletModule</title>
<path fill="none" stroke="black" d="M730.08,-122.11C730.08,-122.11 730.08,-140.99 730.08,-140.99"/>
<polygon fill="black" stroke="black" points="726.58,-140.99 730.08,-150.99 733.58,-140.99 726.58,-140.99"/>
</g>
<!-- TransferDialogComponent -->
<g id="node6" class="node">
<title>TransferDialogComponent</title>
<polygon fill="#8dd3c7" stroke="black" points="521.34,-122 518.34,-126 497.34,-126 494.34,-122 354.66,-122 354.66,-86 521.34,-86 521.34,-122"/>
<text text-anchor="middle" x="438" y="-99.8" font-family="Times,serif" font-size="14.00">TransferDialogComponent</text>
</g>
<!-- TransferDialogComponent&#45;&gt;WalletModule -->
<g id="edge6" class="edge">
<title>TransferDialogComponent&#45;&gt;WalletModule</title>
<path fill="none" stroke="black" d="M438,-122.03C438,-138.4 438,-160 438,-160 438,-160 685.51,-160 685.51,-160"/>
<polygon fill="black" stroke="black" points="685.51,-163.5 695.51,-160 685.51,-156.5 685.51,-163.5"/>
</g>
<!-- WalletComponent -->
<g id="node7" class="node">
<title>WalletComponent</title>
<polygon fill="#8dd3c7" stroke="black" points="336.15,-122 333.15,-126 312.15,-126 309.15,-122 217.85,-122 217.85,-86 336.15,-86 336.15,-122"/>
<text text-anchor="middle" x="277" y="-99.8" font-family="Times,serif" font-size="14.00">WalletComponent</text>
</g>
<!-- WalletComponent&#45;&gt;WalletModule -->
<g id="edge7" class="edge">
<title>WalletComponent&#45;&gt;WalletModule</title>
<path fill="none" stroke="black" d="M277,-122.11C277,-141.34 277,-169 277,-169 277,-169 685.34,-169 685.34,-169"/>
<polygon fill="black" stroke="black" points="685.34,-172.5 695.34,-169 685.34,-165.5 685.34,-172.5"/>
</g>
<!-- WithdrawDialogComponent -->
<g id="node8" class="node">
<title>WithdrawDialogComponent</title>
<polygon fill="#8dd3c7" stroke="black" points="199.91,-122 196.91,-126 175.91,-126 172.91,-122 24.09,-122 24.09,-86 199.91,-86 199.91,-122"/>
<text text-anchor="middle" x="112" y="-99.8" font-family="Times,serif" font-size="14.00">WithdrawDialogComponent</text>
</g>
<!-- WithdrawDialogComponent&#45;&gt;WalletModule -->
<g id="edge8" class="edge">
<title>WithdrawDialogComponent&#45;&gt;WalletModule</title>
<path fill="none" stroke="black" d="M112,-122.29C112,-144.21 112,-178 112,-178 112,-178 685.46,-178 685.46,-178"/>
<polygon fill="black" stroke="black" points="685.46,-181.5 695.46,-178 685.46,-174.5 685.46,-181.5"/>
</g>
</g>
</svg>
