<?xml version="1.0" encoding="UTF-8" standalone="no"?>
<!DOCTYPE svg PUBLIC "-//W3C//DTD SVG 1.1//EN"
 "http://www.w3.org/Graphics/SVG/1.1/DTD/svg11.dtd">
<!-- Generated by graphviz version 2.47.0 (20210316.0004)
 -->
<!-- Title: dependencies Pages: 1 -->
<svg width="1134pt" height="211pt"
 viewBox="0.00 0.00 1134.00 211.00" xmlns="http://www.w3.org/2000/svg" xmlns:xlink="http://www.w3.org/1999/xlink">
<g id="graph0" class="graph" transform="scale(1 1) rotate(0) translate(4 207)">
<title>dependencies</title>
<polygon fill="white" stroke="transparent" points="-4,4 -4,-207 1130,-207 1130,4 -4,4"/>
<text text-anchor="start" x="542.01" y="-42.4" font-family="Times-12" font-weight="bold" font-size="14.00">Legend</text>
<polygon fill="#ffffb3" stroke="transparent" points="329,-10 329,-30 349,-30 349,-10 329,-10"/>
<text text-anchor="start" x="352.63" y="-15.4" font-family="Times-12" font-size="14.00"> &#160;Declarations</text>
<polygon fill="#8dd3c7" stroke="transparent" points="442,-10 442,-30 462,-30 462,-10 442,-10"/>
<text text-anchor="start" x="465.73" y="-15.4" font-family="Times-12" font-size="14.00"> &#160;Module</text>
<polygon fill="#80b1d3" stroke="transparent" points="528,-10 528,-30 548,-30 548,-10 528,-10"/>
<text text-anchor="start" x="551.78" y="-15.4" font-family="Times-12" font-size="14.00"> &#160;Bootstrap</text>
<polygon fill="#fdb462" stroke="transparent" points="625,-10 625,-30 645,-30 645,-10 625,-10"/>
<text text-anchor="start" x="648.67" y="-15.4" font-family="Times-12" font-size="14.00"> &#160;Providers</text>
<polygon fill="#fb8072" stroke="transparent" points="721,-10 721,-30 741,-30 741,-10 721,-10"/>
<text text-anchor="start" x="744.73" y="-15.4" font-family="Times-12" font-size="14.00"> &#160;Exports</text>
<g id="clust1" class="cluster">
<title>cluster_ChatModule</title>
<polygon fill="none" stroke="black" stroke-dasharray="1,5" points="8,-70 8,-195 1118,-195 1118,-70 8,-70"/>
</g>
<g id="clust3" class="cluster">
<title>cluster_ChatModule_imports</title>
<polygon fill="none" stroke="black" points="16,-78 16,-130 1110,-130 1110,-78 16,-78"/>
</g>
<!-- ChatListComponent -->
<g id="node1" class="node">
<title>ChatListComponent</title>
<polygon fill="#8dd3c7" stroke="black" points="1101.55,-122 1098.55,-126 1077.55,-126 1074.55,-122 972.45,-122 972.45,-86 1101.55,-86 1101.55,-122"/>
<text text-anchor="middle" x="1037" y="-99.8" font-family="Times,serif" font-size="14.00">ChatListComponent</text>
</g>
<!-- ChatModule -->
<g id="node9" class="node">
<title>ChatModule</title>
<polygon fill="#8dd3c7" stroke="black" points="517.99,-187 514.99,-191 493.99,-191 490.99,-187 432.01,-187 432.01,-151 517.99,-151 517.99,-187"/>
<text text-anchor="middle" x="475" y="-164.8" font-family="Times,serif" font-size="14.00">ChatModule</text>
</g>
<!-- ChatListComponent&#45;&gt;ChatModule -->
<g id="edge1" class="edge">
<title>ChatListComponent&#45;&gt;ChatModule</title>
<path fill="none" stroke="black" d="M1037,-122.29C1037,-144.21 1037,-178 1037,-178 1037,-178 528.17,-178 528.17,-178"/>
<polygon fill="black" stroke="black" points="528.17,-174.5 518.17,-178 528.17,-181.5 528.17,-174.5"/>
</g>
<!-- ChatMessageComponent -->
<g id="node2" class="node">
<title>ChatMessageComponent</title>
<polygon fill="#8dd3c7" stroke="black" points="954.25,-122 951.25,-126 930.25,-126 927.25,-122 797.75,-122 797.75,-86 954.25,-86 954.25,-122"/>
<text text-anchor="middle" x="876" y="-99.8" font-family="Times,serif" font-size="14.00">ChatMessageComponent</text>
</g>
<!-- ChatMessageComponent&#45;&gt;ChatModule -->
<g id="edge2" class="edge">
<title>ChatMessageComponent&#45;&gt;ChatModule</title>
<path fill="none" stroke="black" d="M876,-122.11C876,-141.34 876,-169 876,-169 876,-169 528.3,-169 528.3,-169"/>
<polygon fill="black" stroke="black" points="528.3,-165.5 518.3,-169 528.29,-172.5 528.3,-165.5"/>
</g>
<!-- ChatRoomComponent -->
<g id="node3" class="node">
<title>ChatRoomComponent</title>
<polygon fill="#8dd3c7" stroke="black" points="780,-122 777,-126 756,-126 753,-122 638,-122 638,-86 780,-86 780,-122"/>
<text text-anchor="middle" x="709" y="-99.8" font-family="Times,serif" font-size="14.00">ChatRoomComponent</text>
</g>
<!-- ChatRoomComponent&#45;&gt;ChatModule -->
<g id="edge3" class="edge">
<title>ChatRoomComponent&#45;&gt;ChatModule</title>
<path fill="none" stroke="black" d="M709,-122.03C709,-138.4 709,-160 709,-160 709,-160 528.19,-160 528.19,-160"/>
<polygon fill="black" stroke="black" points="528.19,-156.5 518.19,-160 528.19,-163.5 528.19,-156.5"/>
</g>
<!-- ChatSettingsComponent -->
<g id="node4" class="node">
<title>ChatSettingsComponent</title>
<polygon fill="#8dd3c7" stroke="black" points="620.39,-122 617.39,-126 596.39,-126 593.39,-122 467.61,-122 467.61,-86 620.39,-86 620.39,-122"/>
<text text-anchor="middle" x="544" y="-99.8" font-family="Times,serif" font-size="14.00">ChatSettingsComponent</text>
</g>
<!-- ChatSettingsComponent&#45;&gt;ChatModule -->
<g id="edge4" class="edge">
<title>ChatSettingsComponent&#45;&gt;ChatModule</title>
<path fill="none" stroke="black" d="M492.78,-122.11C492.78,-122.11 492.78,-140.99 492.78,-140.99"/>
<polygon fill="black" stroke="black" points="489.28,-140.99 492.78,-150.99 496.28,-140.99 489.28,-140.99"/>
</g>
<!-- FileSizePipe -->
<g id="node5" class="node">
<title>FileSizePipe</title>
<polygon fill="#8dd3c7" stroke="black" points="449.27,-122 446.27,-126 425.27,-126 422.27,-122 362.73,-122 362.73,-86 449.27,-86 449.27,-122"/>
<text text-anchor="middle" x="406" y="-99.8" font-family="Times,serif" font-size="14.00">FileSizePipe</text>
</g>
<!-- FileSizePipe&#45;&gt;ChatModule -->
<g id="edge5" class="edge">
<title>FileSizePipe&#45;&gt;ChatModule</title>
<path fill="none" stroke="black" d="M440.69,-122.11C440.69,-122.11 440.69,-140.99 440.69,-140.99"/>
<polygon fill="black" stroke="black" points="437.19,-140.99 440.69,-150.99 444.19,-140.99 437.19,-140.99"/>
</g>
<!-- LinkifyPipe -->
<g id="node6" class="node">
<title>LinkifyPipe</title>
<polygon fill="#8dd3c7" stroke="black" points="344.38,-122 341.38,-126 320.38,-126 317.38,-122 261.62,-122 261.62,-86 344.38,-86 344.38,-122"/>
<text text-anchor="middle" x="303" y="-99.8" font-family="Times,serif" font-size="14.00">LinkifyPipe</text>
</g>
<!-- LinkifyPipe&#45;&gt;ChatModule -->
<g id="edge6" class="edge">
<title>LinkifyPipe&#45;&gt;ChatModule</title>
<path fill="none" stroke="black" d="M303,-122.03C303,-138.4 303,-160 303,-160 303,-160 421.6,-160 421.6,-160"/>
<polygon fill="black" stroke="black" points="421.6,-163.5 431.6,-160 421.6,-156.5 421.6,-163.5"/>
</g>
<!-- MaterialModule -->
<g id="node7" class="node">
<title>MaterialModule</title>
<polygon fill="#8dd3c7" stroke="black" points="243.47,-122 240.47,-126 219.47,-126 216.47,-122 136.53,-122 136.53,-86 243.47,-86 243.47,-122"/>
<text text-anchor="middle" x="190" y="-99.8" font-family="Times,serif" font-size="14.00">MaterialModule</text>
</g>
<!-- MaterialModule&#45;&gt;ChatModule -->
<g id="edge7" class="edge">
<title>MaterialModule&#45;&gt;ChatModule</title>
<path fill="none" stroke="black" d="M190,-122.11C190,-141.34 190,-169 190,-169 190,-169 421.71,-169 421.71,-169"/>
<polygon fill="black" stroke="black" points="421.71,-172.5 431.71,-169 421.71,-165.5 421.71,-172.5"/>
</g>
<!-- TimeAgoPipe -->
<g id="node8" class="node">
<title>TimeAgoPipe</title>
<polygon fill="#8dd3c7" stroke="black" points="118.04,-122 115.04,-126 94.04,-126 91.04,-122 23.96,-122 23.96,-86 118.04,-86 118.04,-122"/>
<text text-anchor="middle" x="71" y="-99.8" font-family="Times,serif" font-size="14.00">TimeAgoPipe</text>
</g>
<!-- TimeAgoPipe&#45;&gt;ChatModule -->
<g id="edge8" class="edge">
<title>TimeAgoPipe&#45;&gt;ChatModule</title>
<path fill="none" stroke="black" d="M71,-122.29C71,-144.21 71,-178 71,-178 71,-178 421.76,-178 421.76,-178"/>
<polygon fill="black" stroke="black" points="421.76,-181.5 431.76,-178 421.76,-174.5 421.76,-181.5"/>
</g>
</g>
</svg>
