<?xml version="1.0" encoding="UTF-8" standalone="no"?>
<!DOCTYPE svg PUBLIC "-//W3C//DTD SVG 1.1//EN"
 "http://www.w3.org/Graphics/SVG/1.1/DTD/svg11.dtd">
<!-- Generated by graphviz version 2.47.0 (20210316.0004)
 -->
<!-- Title: dependencies Pages: 1 -->
<svg width="965pt" height="211pt"
 viewBox="0.00 0.00 965.00 211.00" xmlns="http://www.w3.org/2000/svg" xmlns:xlink="http://www.w3.org/1999/xlink">
<g id="graph0" class="graph" transform="scale(1 1) rotate(0) translate(4 207)">
<title>dependencies</title>
<polygon fill="white" stroke="transparent" points="-4,4 -4,-207 961,-207 961,4 -4,4"/>
<text text-anchor="start" x="457.51" y="-42.4" font-family="Times-12" font-weight="bold" font-size="14.00">Legend</text>
<polygon fill="#ffffb3" stroke="transparent" points="244.5,-10 244.5,-30 264.5,-30 264.5,-10 244.5,-10"/>
<text text-anchor="start" x="268.13" y="-15.4" font-family="Times-12" font-size="14.00"> &#160;Declarations</text>
<polygon fill="#8dd3c7" stroke="transparent" points="357.5,-10 357.5,-30 377.5,-30 377.5,-10 357.5,-10"/>
<text text-anchor="start" x="381.23" y="-15.4" font-family="Times-12" font-size="14.00"> &#160;Module</text>
<polygon fill="#80b1d3" stroke="transparent" points="443.5,-10 443.5,-30 463.5,-30 463.5,-10 443.5,-10"/>
<text text-anchor="start" x="467.28" y="-15.4" font-family="Times-12" font-size="14.00"> &#160;Bootstrap</text>
<polygon fill="#fdb462" stroke="transparent" points="540.5,-10 540.5,-30 560.5,-30 560.5,-10 540.5,-10"/>
<text text-anchor="start" x="564.17" y="-15.4" font-family="Times-12" font-size="14.00"> &#160;Providers</text>
<polygon fill="#fb8072" stroke="transparent" points="636.5,-10 636.5,-30 656.5,-30 656.5,-10 636.5,-10"/>
<text text-anchor="start" x="660.23" y="-15.4" font-family="Times-12" font-size="14.00"> &#160;Exports</text>
<g id="clust1" class="cluster">
<title>cluster_AdManagementModule</title>
<polygon fill="none" stroke="black" stroke-dasharray="1,5" points="8,-70 8,-195 949,-195 949,-70 8,-70"/>
</g>
<g id="clust3" class="cluster">
<title>cluster_AdManagementModule_imports</title>
<polygon fill="none" stroke="black" points="16,-78 16,-130 941,-130 941,-78 16,-78"/>
</g>
<!-- AdFormComponent -->
<g id="node1" class="node">
<title>AdFormComponent</title>
<polygon fill="#8dd3c7" stroke="black" points="933.27,-122 930.27,-126 909.27,-126 906.27,-122 804.73,-122 804.73,-86 933.27,-86 933.27,-122"/>
<text text-anchor="middle" x="869" y="-99.8" font-family="Times,serif" font-size="14.00">AdFormComponent</text>
</g>
<!-- AdManagementModule -->
<g id="node7" class="node">
<title>AdManagementModule</title>
<polygon fill="#8dd3c7" stroke="black" points="553.74,-187 550.74,-191 529.74,-191 526.74,-187 404.26,-187 404.26,-151 553.74,-151 553.74,-187"/>
<text text-anchor="middle" x="479" y="-164.8" font-family="Times,serif" font-size="14.00">AdManagementModule</text>
</g>
<!-- AdFormComponent&#45;&gt;AdManagementModule -->
<g id="edge1" class="edge">
<title>AdFormComponent&#45;&gt;AdManagementModule</title>
<path fill="none" stroke="black" d="M869,-122.28C869,-143.32 869,-175 869,-175 869,-175 564.2,-175 564.2,-175"/>
<polygon fill="black" stroke="black" points="564.2,-171.5 554.2,-175 564.2,-178.5 564.2,-171.5"/>
</g>
<!-- AdListComponent -->
<g id="node2" class="node">
<title>AdListComponent</title>
<polygon fill="#8dd3c7" stroke="black" points="787.22,-122 784.22,-126 763.22,-126 760.22,-122 666.78,-122 666.78,-86 787.22,-86 787.22,-122"/>
<text text-anchor="middle" x="727" y="-99.8" font-family="Times,serif" font-size="14.00">AdListComponent</text>
</g>
<!-- AdListComponent&#45;&gt;AdManagementModule -->
<g id="edge2" class="edge">
<title>AdListComponent&#45;&gt;AdManagementModule</title>
<path fill="none" stroke="black" d="M727,-122.02C727,-139.37 727,-163 727,-163 727,-163 563.74,-163 563.74,-163"/>
<polygon fill="black" stroke="black" points="563.74,-159.5 553.74,-163 563.74,-166.5 563.74,-159.5"/>
</g>
<!-- AdManagementComponent -->
<g id="node3" class="node">
<title>AdManagementComponent</title>
<polygon fill="#8dd3c7" stroke="black" points="648.52,-122 645.52,-126 624.52,-126 621.52,-122 477.48,-122 477.48,-86 648.52,-86 648.52,-122"/>
<text text-anchor="middle" x="563" y="-99.8" font-family="Times,serif" font-size="14.00">AdManagementComponent</text>
</g>
<!-- AdManagementComponent&#45;&gt;AdManagementModule -->
<g id="edge3" class="edge">
<title>AdManagementComponent&#45;&gt;AdManagementModule</title>
<path fill="none" stroke="black" d="M515.55,-122.11C515.55,-122.11 515.55,-140.99 515.55,-140.99"/>
<polygon fill="black" stroke="black" points="512.05,-140.99 515.55,-150.99 519.05,-140.99 512.05,-140.99"/>
</g>
<!-- AdStatsComponent -->
<g id="node4" class="node">
<title>AdStatsComponent</title>
<polygon fill="#8dd3c7" stroke="black" points="458.66,-122 455.66,-126 434.66,-126 431.66,-122 333.34,-122 333.34,-86 458.66,-86 458.66,-122"/>
<text text-anchor="middle" x="396" y="-99.8" font-family="Times,serif" font-size="14.00">AdStatsComponent</text>
</g>
<!-- AdStatsComponent&#45;&gt;AdManagementModule -->
<g id="edge4" class="edge">
<title>AdStatsComponent&#45;&gt;AdManagementModule</title>
<path fill="none" stroke="black" d="M431.48,-122.11C431.48,-122.11 431.48,-140.99 431.48,-140.99"/>
<polygon fill="black" stroke="black" points="427.98,-140.99 431.48,-150.99 434.98,-140.99 427.98,-140.99"/>
</g>
<!-- MaterialModule -->
<g id="node5" class="node">
<title>MaterialModule</title>
<polygon fill="#8dd3c7" stroke="black" points="315.47,-122 312.47,-126 291.47,-126 288.47,-122 208.53,-122 208.53,-86 315.47,-86 315.47,-122"/>
<text text-anchor="middle" x="262" y="-99.8" font-family="Times,serif" font-size="14.00">MaterialModule</text>
</g>
<!-- MaterialModule&#45;&gt;AdManagementModule -->
<g id="edge5" class="edge">
<title>MaterialModule&#45;&gt;AdManagementModule</title>
<path fill="none" stroke="black" d="M262,-122.02C262,-139.37 262,-163 262,-163 262,-163 394.02,-163 394.02,-163"/>
<polygon fill="black" stroke="black" points="394.02,-166.5 404.02,-163 394.02,-159.5 394.02,-166.5"/>
</g>
<!-- TravelItineraryComponent -->
<g id="node6" class="node">
<title>TravelItineraryComponent</title>
<polygon fill="#8dd3c7" stroke="black" points="190.06,-122 187.06,-126 166.06,-126 163.06,-122 23.94,-122 23.94,-86 190.06,-86 190.06,-122"/>
<text text-anchor="middle" x="107" y="-99.8" font-family="Times,serif" font-size="14.00">TravelItineraryComponent</text>
</g>
<!-- TravelItineraryComponent&#45;&gt;AdManagementModule -->
<g id="edge6" class="edge">
<title>TravelItineraryComponent&#45;&gt;AdManagementModule</title>
<path fill="none" stroke="black" d="M107,-122.28C107,-143.32 107,-175 107,-175 107,-175 394.17,-175 394.17,-175"/>
<polygon fill="black" stroke="black" points="394.17,-178.5 404.17,-175 394.17,-171.5 394.17,-178.5"/>
</g>
</g>
</svg>
