<?xml version="1.0" encoding="UTF-8" standalone="no"?>
<svg width="412" height="892" viewBox="0 0 412 892" xmlns="http://www.w3.org/2000/svg" xmlns:xlink="http://www.w3.org/1999/xlink">
  <!-- Definitions for reusable elements -->
  <defs>
    <!-- Gradient for background -->
    <linearGradient id="backgroundGradient" x1="0%" y1="0%" x2="100%" y2="100%">
      <stop offset="0%" style="stop-color:#1a1a2e;stop-opacity:1" />
      <stop offset="100%" style="stop-color:#16213e;stop-opacity:1" />
    </linearGradient>
    
    <!-- Card shadow -->
    <filter id="cardShadow" x="-10%" y="-10%" width="120%" height="120%">
      <feDropShadow dx="0" dy="4" stdDeviation="6" flood-color="#000000" flood-opacity="0.25"/>
    </filter>
    
    <!-- Button styles -->
    <linearGradient id="primaryButtonGradient" x1="0%" y1="0%" x2="0%" y2="100%">
      <stop offset="0%" style="stop-color:#e94560;stop-opacity:1" />
      <stop offset="100%" style="stop-color:#d13654;stop-opacity:1" />
    </linearGradient>
    
    <!-- Avatar placeholder -->
    <circle id="avatarCircle" cx="20" cy="20" r="20" fill="#ccc"/>
    <clipPath id="avatarClip">
      <use xlink:href="#avatarCircle"/>
    </clipPath>
    
    <!-- Star rating -->
    <symbol id="star" viewBox="0 0 24 24">
      <path d="M12 17.27L18.18 21l-1.64-7.03L22 9.24l-7.19-.61L12 2 9.19 8.63 2 9.24l5.46 4.73L5.82 21z" fill="#ffc107"/>
    </symbol>
    
    <!-- Android status bar -->
    <symbol id="androidStatusBar" viewBox="0 0 412 24">
      <rect width="412" height="24" fill="none"/>
      <!-- Time -->
      <text x="380" y="17" font-family="Roboto, Arial, sans-serif" font-size="14" font-weight="500" fill="#ffffff" text-anchor="end">9:41</text>
      <!-- Battery -->
      <rect x="342" y="7" width="22" height="10" rx="1" fill="none" stroke="#ffffff" stroke-width="1"/>
      <rect x="365" y="10" width="1" height="4" fill="#ffffff"/>
      <rect x="344" y="9" width="18" height="6" fill="#ffffff"/>
      <!-- Wifi -->
      <path d="M320 7l-1 1c3 3 3 7 0 10l1 1c3.5-3.5 3.5-8.5 0-12z" fill="#ffffff"/>
      <path d="M317 10l-1 1c1.5 1.5 1.5 3.5 0 5l1 1c2-2 2-5 0-7z" fill="#ffffff"/>
      <circle cx="315" cy="13.5" r="1" fill="#ffffff"/>
      <!-- Signal -->
      <rect x="295" y="8" width="2" height="8" rx="0.5" fill="#ffffff"/>
      <rect x="299" y="6" width="2" height="10" rx="0.5" fill="#ffffff"/>
      <rect x="303" y="4" width="2" height="12" rx="0.5" fill="#ffffff"/>
      <rect x="307" y="2" width="2" height="14" rx="0.5" fill="#ffffff"/>
    </symbol>
    
    <!-- Android navigation bar -->
    <symbol id="androidNavBar" viewBox="0 0 412 48">
      <rect width="412" height="48" fill="#000000"/>
      <!-- Back -->
      <path d="M142 24l8-8v16l-8-8z" fill="#ffffff"/>
      <!-- Home -->
      <circle cx="206" cy="24" r="8" stroke="#ffffff" stroke-width="2" fill="none"/>
      <!-- Recent -->
      <rect x="262" y="22" width="16" height="4" rx="1" fill="#ffffff"/>
    </symbol>
    
    <!-- Bottom navigation -->
    <symbol id="bottomNav" viewBox="0 0 412 80">
      <rect width="412" height="80" fill="#0f3460"/>
      
      <!-- Home -->
      <g transform="translate(50, 25)">
        <path d="M3 13h10v8h6v-8h10V3H3v10z" fill="#e94560"/>
        <text x="15" y="45" font-family="Roboto, Arial, sans-serif" font-size="12" fill="#ffffff" text-anchor="middle">Home</text>
      </g>
      
      <!-- Search -->
      <g transform="translate(137, 25)">
        <path d="M15.5 14h-.79l-.28-.27C15.41 12.59 16 11.11 16 9.5 16 5.91 13.09 3 9.5 3S3 5.91 3 9.5 5.91 16 9.5 16c1.61 0 3.09-.59 4.23-1.57l.27.28v.79l5 4.99L20.49 19l-4.99-5z" fill="#ffffff"/>
        <text x="15" y="45" font-family="Roboto, Arial, sans-serif" font-size="12" fill="#ffffff" text-anchor="middle">Search</text>
      </g>
      
      <!-- Favorites -->
      <g transform="translate(224, 25)">
        <path d="M17 3H7c-1.1 0-1.99.9-1.99 2L5 21l7-3 7 3V5c0-1.1-.9-2-2-2z" fill="#ffffff"/>
        <text x="15" y="45" font-family="Roboto, Arial, sans-serif" font-size="12" fill="#ffffff" text-anchor="middle">Favorites</text>
      </g>
      
      <!-- Profile -->
      <g transform="translate(311, 25)">
        <path d="M12 12c2.21 0 4-1.79 4-4s-1.79-4-4-4-4 1.79-4 4 1.79 4 4 4zm0 2c-2.67 0-8 1.34-8 4v2h16v-2c0-2.66-5.33-4-8-4z" fill="#ffffff"/>
        <text x="15" y="45" font-family="Roboto, Arial, sans-serif" font-size="12" fill="#ffffff" text-anchor="middle">Profile</text>
      </g>
    </symbol>
  </defs>
  
  <!-- Main background -->
  <rect width="412" height="892" fill="url(#backgroundGradient)"/>
  
  <!-- Android status bar -->
  <use xlink:href="#androidStatusBar" x="0" y="0" width="412" height="24" />
  
  <!-- Header -->
  <g id="header">
    <rect x="0" y="24" width="412" height="60" fill="#0f3460" />
    <text x="20" y="62" font-family="Roboto, Arial, sans-serif" font-size="22" font-weight="bold" fill="#ffffff">DateNight.io</text>
    
    <!-- User profile -->
    <g transform="translate(372, 54)">
      <circle cx="0" cy="0" r="15" fill="#e94560" />
      <text x="0" y="5" font-family="Roboto, Arial, sans-serif" font-size="14" fill="#ffffff" text-anchor="middle">OL</text>
    </g>
  </g>
  
  <!-- Search bar -->
  <g transform="translate(20, 100)">
    <rect x="0" y="0" width="372" height="40" rx="20" fill="#ffffff" opacity="0.1" />
    <svg x="15" y="8" width="24" height="24" viewBox="0 0 24 24">
      <path d="M15.5 14h-.79l-.28-.27C15.41 12.59 16 11.11 16 9.5 16 5.91 13.09 3 9.5 3S3 5.91 3 9.5 5.91 16 9.5 16c1.61 0 3.09-.59 4.23-1.57l.27.28v.79l5 4.99L20.49 19l-4.99-5zm-6 0C7.01 14 5 11.99 5 9.5S7.01 5 9.5 5 14 7.01 14 9.5 11.99 14 9.5 14z" fill="#ffffff"/>
    </svg>
    <text x="50" y="25" font-family="Roboto, Arial, sans-serif" font-size="14" fill="#ffffff" opacity="0.7">Search for dates, events, services...</text>
  </g>
  
  <!-- View type selector -->
  <g transform="translate(20, 160)">
    <rect x="0" y="0" width="372" height="40" rx="20" fill="#ffffff" opacity="0.1" />
    
    <!-- Netflix option (selected) -->
    <rect x="0" y="0" width="124" height="40" rx="20" fill="#e94560" />
    <text x="62" y="25" font-family="Roboto, Arial, sans-serif" font-size="14" fill="#ffffff" text-anchor="middle">Netflix</text>
    
    <!-- Tinder option -->
    <rect x="124" y="0" width="124" height="40" rx="0" fill="#ffffff" opacity="0.0" />
    <text x="186" y="25" font-family="Roboto, Arial, sans-serif" font-size="14" fill="#ffffff" opacity="0.7" text-anchor="middle">Tinder</text>
    
    <!-- List option -->
    <rect x="248" y="0" width="124" height="40" rx="0" fill="#ffffff" opacity="0.0" />
    <text x="310" y="25" font-family="Roboto, Arial, sans-serif" font-size="14" fill="#ffffff" opacity="0.7" text-anchor="middle">List</text>
  </g>
  
  <!-- Welcome banner -->
  <g transform="translate(20, 220)">
    <rect x="0" y="0" width="372" height="120" rx="8" fill="#0f3460" filter="url(#cardShadow)" />
    <text x="20" y="40" font-family="Roboto, Arial, sans-serif" font-size="20" font-weight="bold" fill="#ffffff">Welcome to DateNight.io</text>
    <text x="20" y="65" font-family="Roboto, Arial, sans-serif" font-size="14" fill="#ffffff" opacity="0.8">Find your perfect date night experience</text>
    <rect x="20" y="80" width="140" height="30" rx="15" fill="url(#primaryButtonGradient)" />
    <text x="90" y="100" font-family="Roboto, Arial, sans-serif" font-size="14" font-weight="bold" fill="#ffffff" text-anchor="middle">Browse Now</text>
  </g>
  
  <!-- Featured categories -->
  <g transform="translate(20, 360)">
    <text x="0" y="20" font-family="Roboto, Arial, sans-serif" font-size="18" font-weight="bold" fill="#ffffff">Featured Categories</text>
    
    <!-- Category cards -->
    <g transform="translate(0, 40)">
      <!-- Category 1 -->
      <g transform="translate(0, 0)">
        <rect x="0" y="0" width="176" height="100" rx="8" fill="#e94560" opacity="0.8" filter="url(#cardShadow)" />
        <text x="88" y="55" font-family="Roboto, Arial, sans-serif" font-size="16" font-weight="bold" fill="#ffffff" text-anchor="middle">Massage</text>
      </g>
      
      <!-- Category 2 -->
      <g transform="translate(196, 0)">
        <rect x="0" y="0" width="176" height="100" rx="8" fill="#0f3460" filter="url(#cardShadow)" />
        <text x="88" y="55" font-family="Roboto, Arial, sans-serif" font-size="16" font-weight="bold" fill="#ffffff" text-anchor="middle">Escort</text>
      </g>
    </g>
    
    <g transform="translate(0, 110)">
      <!-- Category 3 -->
      <g transform="translate(0, 0)">
        <rect x="0" y="0" width="176" height="100" rx="8" fill="#0f3460" filter="url(#cardShadow)" />
        <text x="88" y="55" font-family="Roboto, Arial, sans-serif" font-size="16" font-weight="bold" fill="#ffffff" text-anchor="middle">Dance</text>
      </g>
      
      <!-- Category 4 -->
      <g transform="translate(196, 0)">
        <rect x="0" y="0" width="176" height="100" rx="8" fill="#0f3460" filter="url(#cardShadow)" />
        <text x="88" y="55" font-family="Roboto, Arial, sans-serif" font-size="16" font-weight="bold" fill="#ffffff" text-anchor="middle">Events</text>
      </g>
    </g>
  </g>
  
  <!-- Trending now -->
  <g transform="translate(20, 630)">
    <text x="0" y="20" font-family="Roboto, Arial, sans-serif" font-size="18" font-weight="bold" fill="#ffffff">Trending Now</text>
    
    <!-- Trending cards (horizontal scroll) -->
    <g transform="translate(0, 40)">
      <!-- Card 1 -->
      <g transform="translate(0, 0)">
        <rect x="0" y="0" width="160" height="180" rx="8" fill="#1a1a2e" filter="url(#cardShadow)" />
        <rect x="0" y="0" width="160" height="100" rx="8 8 0 0" fill="#333" />
        <rect x="10" y="10" width="60" height="24" rx="12" fill="#e94560" opacity="0.9" />
        <text x="40" y="26" font-family="Roboto, Arial, sans-serif" font-size="12" font-weight="bold" fill="#ffffff" text-anchor="middle">Featured</text>
        
        <text x="10" y="120" font-family="Roboto, Arial, sans-serif" font-size="14" font-weight="bold" fill="#ffffff">Professional Massage</text>
        <text x="10" y="140" font-family="Roboto, Arial, sans-serif" font-size="12" fill="#ffffff" opacity="0.7">Oslo, Norway</text>
        
        <g transform="translate(10, 155)">
          <use xlink:href="#star" x="0" y="0" width="14" height="14" />
          <use xlink:href="#star" x="16" y="0" width="14" height="14" />
          <use xlink:href="#star" x="32" y="0" width="14" height="14" />
          <use xlink:href="#star" x="48" y="0" width="14" height="14" />
          <use xlink:href="#star" x="64" y="0" width="14" height="14" opacity="0.3" />
          <text x="86" y="11" font-family="Roboto, Arial, sans-serif" font-size="10" fill="#ffffff" opacity="0.7">(24)</text>
        </g>
      </g>
      
      <!-- Card 2 -->
      <g transform="translate(170, 0)">
        <rect x="0" y="0" width="160" height="180" rx="8" fill="#1a1a2e" filter="url(#cardShadow)" />
        <rect x="0" y="0" width="160" height="100" rx="8 8 0 0" fill="#333" />
        <rect x="10" y="10" width="60" height="24" rx="12" fill="#e94560" opacity="0.9" />
        <text x="40" y="26" font-family="Roboto, Arial, sans-serif" font-size="12" font-weight="bold" fill="#ffffff" text-anchor="middle">Premium</text>
        
        <text x="10" y="120" font-family="Roboto, Arial, sans-serif" font-size="14" font-weight="bold" fill="#ffffff">Elegant Escort</text>
        <text x="10" y="140" font-family="Roboto, Arial, sans-serif" font-size="12" fill="#ffffff" opacity="0.7">Stockholm, Sweden</text>
        
        <g transform="translate(10, 155)">
          <use xlink:href="#star" x="0" y="0" width="14" height="14" />
          <use xlink:href="#star" x="16" y="0" width="14" height="14" />
          <use xlink:href="#star" x="32" y="0" width="14" height="14" />
          <use xlink:href="#star" x="48" y="0" width="14" height="14" />
          <use xlink:href="#star" x="64" y="0" width="14" height="14" opacity="0.5" />
          <text x="86" y="11" font-family="Roboto, Arial, sans-serif" font-size="10" fill="#ffffff" opacity="0.7">(18)</text>
        </g>
      </g>
      
      <!-- Card 3 (partial view to indicate scrolling) -->
      <g transform="translate(340, 0)">
        <rect x="0" y="0" width="160" height="180" rx="8" fill="#1a1a2e" filter="url(#cardShadow)" />
        <rect x="0" y="0" width="160" height="100" rx="8 8 0 0" fill="#333" />
        <rect x="10" y="10" width="60" height="24" rx="12" fill="#e94560" opacity="0.9" />
        <text x="40" y="26" font-family="Roboto, Arial, sans-serif" font-size="12" font-weight="bold" fill="#ffffff" text-anchor="middle">Trending</text>
      </g>
    </g>
  </g>
  
  <!-- Bottom navigation -->
  <use xlink:href="#bottomNav" x="0" y="764" width="412" height="80" />
  
  <!-- Android navigation bar -->
  <use xlink:href="#androidNavBar" x="0" y="844" width="412" height="48" />
</svg>