he<?xml version="1.0" encoding="UTF-8" standalone="no"?>
<svg width="390" height="844" viewBox="0 0 390 844" xmlns="http://www.w3.org/2000/svg" xmlns:xlink="http://www.w3.org/1999/xlink">
  <!-- Definitions for reusable elements -->
  <defs>
    <!-- Gradient for background -->
    <linearGradient id="backgroundGradient" x1="0%" y1="0%" x2="100%" y2="100%">
      <stop offset="0%" style="stop-color:#1a1a2e;stop-opacity:1" />
      <stop offset="100%" style="stop-color:#16213e;stop-opacity:1" />
    </linearGradient>
    
    <!-- Card shadow -->
    <filter id="cardShadow" x="-10%" y="-10%" width="120%" height="120%">
      <feDropShadow dx="0" dy="4" stdDeviation="6" flood-color="#000000" flood-opacity="0.25"/>
    </filter>
    
    <!-- Button styles -->
    <linearGradient id="primaryButtonGradient" x1="0%" y1="0%" x2="0%" y2="100%">
      <stop offset="0%" style="stop-color:#e94560;stop-opacity:1" />
      <stop offset="100%" style="stop-color:#d13654;stop-opacity:1" />
    </linearGradient>
    
    <!-- Avatar placeholder -->
    <circle id="avatarCircle" cx="20" cy="20" r="20" fill="#ccc"/>
    <clipPath id="avatarClip">
      <use xlink:href="#avatarCircle"/>
    </clipPath>
    
    <!-- Star rating -->
    <symbol id="star" viewBox="0 0 24 24">
      <path d="M12 17.27L18.18 21l-1.64-7.03L22 9.24l-7.19-.61L12 2 9.19 8.63 2 9.24l5.46 4.73L5.82 21z" fill="#ffc107"/>
    </symbol>
    
    <!-- iPhone status bar -->
    <symbol id="iphoneStatusBar" viewBox="0 0 390 44">
      <rect width="390" height="44" fill="none"/>
      <!-- Time -->
      <text x="32" y="26" font-family="SF Pro Text, Arial, sans-serif" font-size="16" font-weight="600" fill="#ffffff">9:41</text>
      <!-- Battery -->
      <rect x="335" y="17" width="25" height="12" rx="3" fill="none" stroke="#ffffff" stroke-width="1"/>
      <rect x="362" y="20" width="2" height="6" rx="1" fill="#ffffff"/>
      <rect x="337" y="19" width="21" height="8" rx="2" fill="#ffffff"/>
      <!-- Wifi -->
      <path d="M298 18l2 2c-2.8 2.8-7.2 2.8-10 0l2-2c1.7 1.7 4.3 1.7 6 0z" fill="#ffffff"/>
      <path d="M294 14l2 2c-4.2 4.2-10.8 4.2-15 0l2-2c3 3 8 3 11 0z" fill="#ffffff"/>
      <path d="M296 26a2 2 0 100-4 2 2 0 000 4z" fill="#ffffff"/>
      <!-- Signal -->
      <rect x="268" y="18" width="3" height="9" rx="1" fill="#ffffff"/>
      <rect x="273" y="16" width="3" height="11" rx="1" fill="#ffffff"/>
      <rect x="278" y="14" width="3" height="13" rx="1" fill="#ffffff"/>
      <rect x="283" y="10" width="3" height="17" rx="1" fill="#ffffff"/>
    </symbol>
    
    <!-- iPhone home indicator -->
    <symbol id="iphoneHomeIndicator" viewBox="0 0 390 34">
      <rect width="390" height="34" fill="none"/>
      <rect x="120" y="22" width="150" height="5" rx="2.5" fill="#ffffff"/>
    </symbol>
    
    <!-- Bottom navigation -->
    <symbol id="bottomNav" viewBox="0 0 390 80">
      <rect width="390" height="80" fill="#0f3460"/>
      
      <!-- Home -->
      <g transform="translate(40, 25)">
        <path d="M3 13h10v8h6v-8h10V3H3v10z" fill="#e94560"/>
        <text x="15" y="45" font-family="Arial, sans-serif" font-size="12" fill="#ffffff" text-anchor="middle">Home</text>
      </g>
      
      <!-- Search -->
      <g transform="translate(120, 25)">
        <path d="M15.5 14h-.79l-.28-.27C15.41 12.59 16 11.11 16 9.5 16 5.91 13.09 3 9.5 3S3 5.91 3 9.5 5.91 16 9.5 16c1.61 0 3.09-.59 4.23-1.57l.27.28v.79l5 4.99L20.49 19l-4.99-5z" fill="#ffffff"/>
        <text x="15" y="45" font-family="Arial, sans-serif" font-size="12" fill="#ffffff" text-anchor="middle">Search</text>
      </g>
      
      <!-- Favorites -->
      <g transform="translate(200, 25)">
        <path d="M17 3H7c-1.1 0-1.99.9-1.99 2L5 21l7-3 7 3V5c0-1.1-.9-2-2-2z" fill="#ffffff"/>
        <text x="15" y="45" font-family="Arial, sans-serif" font-size="12" fill="#ffffff" text-anchor="middle">Favorites</text>
      </g>
      
      <!-- Profile -->
      <g transform="translate(280, 25)">
        <path d="M12 12c2.21 0 4-1.79 4-4s-1.79-4-4-4-4 1.79-4 4 1.79 4 4 4zm0 2c-2.67 0-8 1.34-8 4v2h16v-2c0-2.66-5.33-4-8-4z" fill="#ffffff"/>
        <text x="15" y="45" font-family="Arial, sans-serif" font-size="12" fill="#ffffff" text-anchor="middle">Profile</text>
      </g>
    </symbol>
  </defs>
  
  <!-- Main background -->
  <rect width="390" height="844" fill="url(#backgroundGradient)"/>
  
  <!-- iPhone status bar -->
  <use xlink:href="#iphoneStatusBar" x="0" y="0" width="390" height="44" />
  
  <!-- Header -->
  <g id="header">
    <rect x="0" y="44" width="390" height="60" fill="#0f3460" />
    <text x="20" y="82" font-family="Arial, sans-serif" font-size="22" font-weight="bold" fill="#ffffff">DateNight.io</text>
    
    <!-- User profile -->
    <g transform="translate(350, 74)">
      <circle cx="0" cy="0" r="15" fill="#e94560" />
      <text x="0" y="5" font-family="Arial, sans-serif" font-size="14" fill="#ffffff" text-anchor="middle">OL</text>
    </g>
  </g>
  
  <!-- Search bar -->
  <g transform="translate(20, 120)">
    <rect x="0" y="0" width="350" height="40" rx="20" fill="#ffffff" opacity="0.1" />
    <svg x="15" y="8" width="24" height="24" viewBox="0 0 24 24">
      <path d="M15.5 14h-.79l-.28-.27C15.41 12.59 16 11.11 16 9.5 16 5.91 13.09 3 9.5 3S3 5.91 3 9.5 5.91 16 9.5 16c1.61 0 3.09-.59 4.23-1.57l.27.28v.79l5 4.99L20.49 19l-4.99-5zm-6 0C7.01 14 5 11.99 5 9.5S7.01 5 9.5 5 14 7.01 14 9.5 11.99 14 9.5 14z" fill="#ffffff"/>
    </svg>
    <text x="50" y="25" font-family="Arial, sans-serif" font-size="14" fill="#ffffff" opacity="0.7">Search for dates, events, services...</text>
  </g>
  
  <!-- View type selector -->
  <g transform="translate(20, 180)">
    <rect x="0" y="0" width="350" height="40" rx="20" fill="#ffffff" opacity="0.1" />
    
    <!-- Netflix option (selected) -->
    <rect x="0" y="0" width="116" height="40" rx="20" fill="#e94560" />
    <text x="58" y="25" font-family="Arial, sans-serif" font-size="14" fill="#ffffff" text-anchor="middle">Netflix</text>
    
    <!-- Tinder option -->
    <rect x="116" y="0" width="116" height="40" rx="0" fill="#ffffff" opacity="0.0" />
    <text x="174" y="25" font-family="Arial, sans-serif" font-size="14" fill="#ffffff" opacity="0.7" text-anchor="middle">Tinder</text>
    
    <!-- List option -->
    <rect x="232" y="0" width="118" height="40" rx="0" fill="#ffffff" opacity="0.0" />
    <text x="291" y="25" font-family="Arial, sans-serif" font-size="14" fill="#ffffff" opacity="0.7" text-anchor="middle">List</text>
  </g>
  
  <!-- Welcome banner -->
  <g transform="translate(20, 240)">
    <rect x="0" y="0" width="350" height="120" rx="8" fill="#0f3460" filter="url(#cardShadow)" />
    <text x="20" y="40" font-family="Arial, sans-serif" font-size="20" font-weight="bold" fill="#ffffff">Welcome to DateNight.io</text>
    <text x="20" y="65" font-family="Arial, sans-serif" font-size="14" fill="#ffffff" opacity="0.8">Find your perfect date night experience</text>
    <rect x="20" y="80" width="140" height="30" rx="15" fill="url(#primaryButtonGradient)" />
    <text x="90" y="100" font-family="Arial, sans-serif" font-size="14" font-weight="bold" fill="#ffffff" text-anchor="middle">Browse Now</text>
  </g>
  
  <!-- Featured categories -->
  <g transform="translate(20, 380)">
    <text x="0" y="20" font-family="Arial, sans-serif" font-size="18" font-weight="bold" fill="#ffffff">Featured Categories</text>
    
    <!-- Category cards -->
    <g transform="translate(0, 40)">
      <!-- Category 1 -->
      <g transform="translate(0, 0)">
        <rect x="0" y="0" width="165" height="100" rx="8" fill="#e94560" opacity="0.8" filter="url(#cardShadow)" />
        <text x="82" y="55" font-family="Arial, sans-serif" font-size="16" font-weight="bold" fill="#ffffff" text-anchor="middle">Massage</text>
      </g>
      
      <!-- Category 2 -->
      <g transform="translate(185, 0)">
        <rect x="0" y="0" width="165" height="100" rx="8" fill="#0f3460" filter="url(#cardShadow)" />
        <text x="82" y="55" font-family="Arial, sans-serif" font-size="16" font-weight="bold" fill="#ffffff" text-anchor="middle">Escort</text>
      </g>
    </g>
    
    <g transform="translate(0, 110)">
      <!-- Category 3 -->
      <g transform="translate(0, 0)">
        <rect x="0" y="0" width="165" height="100" rx="8" fill="#0f3460" filter="url(#cardShadow)" />
        <text x="82" y="55" font-family="Arial, sans-serif" font-size="16" font-weight="bold" fill="#ffffff" text-anchor="middle">Dance</text>
      </g>
      
      <!-- Category 4 -->
      <g transform="translate(185, 0)">
        <rect x="0" y="0" width="165" height="100" rx="8" fill="#0f3460" filter="url(#cardShadow)" />
        <text x="82" y="55" font-family="Arial, sans-serif" font-size="16" font-weight="bold" fill="#ffffff" text-anchor="middle">Events</text>
      </g>
    </g>
  </g>
  
  <!-- Trending now -->
  <g transform="translate(20, 650)">
    <text x="0" y="20" font-family="Arial, sans-serif" font-size="18" font-weight="bold" fill="#ffffff">Trending Now</text>
    
    <!-- Trending cards (horizontal scroll) -->
    <g transform="translate(0, 40)">
      <!-- Card 1 -->
      <g transform="translate(0, 0)">
        <rect x="0" y="0" width="150" height="180" rx="8" fill="#1a1a2e" filter="url(#cardShadow)" />
        <rect x="0" y="0" width="150" height="100" rx="8 8 0 0" fill="#333" />
        <rect x="10" y="10" width="60" height="24" rx="12" fill="#e94560" opacity="0.9" />
        <text x="40" y="26" font-family="Arial, sans-serif" font-size="12" font-weight="bold" fill="#ffffff" text-anchor="middle">Featured</text>
        
        <text x="10" y="120" font-family="Arial, sans-serif" font-size="14" font-weight="bold" fill="#ffffff">Professional Massage</text>
        <text x="10" y="140" font-family="Arial, sans-serif" font-size="12" fill="#ffffff" opacity="0.7">Oslo, Norway</text>
        
        <g transform="translate(10, 155)">
          <use xlink:href="#star" x="0" y="0" width="14" height="14" />
          <use xlink:href="#star" x="16" y="0" width="14" height="14" />
          <use xlink:href="#star" x="32" y="0" width="14" height="14" />
          <use xlink:href="#star" x="48" y="0" width="14" height="14" />
          <use xlink:href="#star" x="64" y="0" width="14" height="14" opacity="0.3" />
          <text x="86" y="11" font-family="Arial, sans-serif" font-size="10" fill="#ffffff" opacity="0.7">(24)</text>
        </g>
      </g>
      
      <!-- Card 2 -->
      <g transform="translate(160, 0)">
        <rect x="0" y="0" width="150" height="180" rx="8" fill="#1a1a2e" filter="url(#cardShadow)" />
        <rect x="0" y="0" width="150" height="100" rx="8 8 0 0" fill="#333" />
        <rect x="10" y="10" width="60" height="24" rx="12" fill="#e94560" opacity="0.9" />
        <text x="40" y="26" font-family="Arial, sans-serif" font-size="12" font-weight="bold" fill="#ffffff" text-anchor="middle">Premium</text>
        
        <text x="10" y="120" font-family="Arial, sans-serif" font-size="14" font-weight="bold" fill="#ffffff">Elegant Escort</text>
        <text x="10" y="140" font-family="Arial, sans-serif" font-size="12" fill="#ffffff" opacity="0.7">Stockholm, Sweden</text>
        
        <g transform="translate(10, 155)">
          <use xlink:href="#star" x="0" y="0" width="14" height="14" />
          <use xlink:href="#star" x="16" y="0" width="14" height="14" />
          <use xlink:href="#star" x="32" y="0" width="14" height="14" />
          <use xlink:href="#star" x="48" y="0" width="14" height="14" />
          <use xlink:href="#star" x="64" y="0" width="14" height="14" opacity="0.5" />
          <text x="86" y="11" font-family="Arial, sans-serif" font-size="10" fill="#ffffff" opacity="0.7">(18)</text>
        </g>
      </g>
      
      <!-- Card 3 (partial view to indicate scrolling) -->
      <g transform="translate(320, 0)">
        <rect x="0" y="0" width="150" height="180" rx="8" fill="#1a1a2e" filter="url(#cardShadow)" />
        <rect x="0" y="0" width="150" height="100" rx="8 8 0 0" fill="#333" />
        <rect x="10" y="10" width="60" height="24" rx="12" fill="#e94560" opacity="0.9" />
        <text x="40" y="26" font-family="Arial, sans-serif" font-size="12" font-weight="bold" fill="#ffffff" text-anchor="middle">Trending</text>
      </g>
    </g>
  </g>
  
  <!-- Bottom navigation -->
  <use xlink:href="#bottomNav" x="0" y="764" width="390" height="80" />
  
  <!-- iPhone home indicator -->
  <use xlink:href="#iphoneHomeIndicator" x="0" y="810" width="390" height="34" />
</svg>