<?xml version="1.0" encoding="UTF-8" standalone="no"?>
<!DOCTYPE svg PUBLIC "-//W3C//DTD SVG 1.1//EN"
 "http://www.w3.org/Graphics/SVG/1.1/DTD/svg11.dtd">
<!-- Generated by graphviz version 2.47.0 (20210316.0004)
 -->
<!-- Title: dependencies Pages: 1 -->
<svg width="1923pt" height="284pt"
 viewBox="0.00 0.00 1923.00 284.00" xmlns="http://www.w3.org/2000/svg" xmlns:xlink="http://www.w3.org/1999/xlink">
<g id="graph0" class="graph" transform="scale(1 1) rotate(0) translate(4 280)">
<title>dependencies</title>
<polygon fill="white" stroke="transparent" points="-4,4 -4,-280 1919,-280 1919,4 -4,4"/>
<text text-anchor="start" x="936.51" y="-42.4" font-family="Times-12" font-weight="bold" font-size="14.00">Legend</text>
<polygon fill="#ffffb3" stroke="transparent" points="723.5,-10 723.5,-30 743.5,-30 743.5,-10 723.5,-10"/>
<text text-anchor="start" x="747.13" y="-15.4" font-family="Times-12" font-size="14.00"> &#160;Declarations</text>
<polygon fill="#8dd3c7" stroke="transparent" points="836.5,-10 836.5,-30 856.5,-30 856.5,-10 836.5,-10"/>
<text text-anchor="start" x="860.23" y="-15.4" font-family="Times-12" font-size="14.00"> &#160;Module</text>
<polygon fill="#80b1d3" stroke="transparent" points="922.5,-10 922.5,-30 942.5,-30 942.5,-10 922.5,-10"/>
<text text-anchor="start" x="946.28" y="-15.4" font-family="Times-12" font-size="14.00"> &#160;Bootstrap</text>
<polygon fill="#fdb462" stroke="transparent" points="1019.5,-10 1019.5,-30 1039.5,-30 1039.5,-10 1019.5,-10"/>
<text text-anchor="start" x="1043.17" y="-15.4" font-family="Times-12" font-size="14.00"> &#160;Providers</text>
<polygon fill="#fb8072" stroke="transparent" points="1115.5,-10 1115.5,-30 1135.5,-30 1135.5,-10 1115.5,-10"/>
<text text-anchor="start" x="1139.23" y="-15.4" font-family="Times-12" font-size="14.00"> &#160;Exports</text>
<g id="clust1" class="cluster">
<title>cluster_EmeraldModule</title>
<polygon fill="none" stroke="black" stroke-dasharray="1,5" points="8,-70 8,-268 1907,-268 1907,-70 8,-70"/>
</g>
<g id="clust4" class="cluster">
<title>cluster_EmeraldModule_exports</title>
<polygon fill="none" stroke="black" points="234,-208 234,-260 1682,-260 1682,-208 234,-208"/>
</g>
<g id="clust3" class="cluster">
<title>cluster_EmeraldModule_imports</title>
<polygon fill="none" stroke="black" points="16,-78 16,-130 1899,-130 1899,-78 16,-78"/>
</g>
<!-- AppCardComponent -->
<g id="node1" class="node">
<title>AppCardComponent</title>
<polygon fill="#8dd3c7" stroke="black" points="1891.15,-122 1888.15,-126 1867.15,-126 1864.15,-122 1758.85,-122 1758.85,-86 1891.15,-86 1891.15,-122"/>
<text text-anchor="middle" x="1825" y="-99.8" font-family="Times,serif" font-size="14.00">AppCardComponent</text>
</g>
<!-- EmeraldModule -->
<g id="node13" class="node">
<title>EmeraldModule</title>
<polygon fill="#8dd3c7" stroke="black" points="993.47,-187 990.47,-191 969.47,-191 966.47,-187 886.53,-187 886.53,-151 993.47,-151 993.47,-187"/>
<text text-anchor="middle" x="940" y="-164.8" font-family="Times,serif" font-size="14.00">EmeraldModule</text>
</g>
<!-- AppCardComponent&#45;&gt;EmeraldModule -->
<g id="edge1" class="edge">
<title>AppCardComponent&#45;&gt;EmeraldModule</title>
<path fill="none" stroke="black" d="M1825,-122.11C1825,-141.34 1825,-169 1825,-169 1825,-169 1003.7,-169 1003.7,-169"/>
<polygon fill="black" stroke="black" points="1003.7,-165.5 993.7,-169 1003.7,-172.5 1003.7,-165.5"/>
</g>
<!-- AvatarComponent -->
<g id="node2" class="node">
<title>AvatarComponent</title>
<polygon fill="#8dd3c7" stroke="black" points="1740.92,-122 1737.92,-126 1716.92,-126 1713.92,-122 1621.08,-122 1621.08,-86 1740.92,-86 1740.92,-122"/>
<text text-anchor="middle" x="1681" y="-99.8" font-family="Times,serif" font-size="14.00">AvatarComponent</text>
</g>
<!-- AvatarComponent&#45;&gt;EmeraldModule -->
<g id="edge2" class="edge">
<title>AvatarComponent&#45;&gt;EmeraldModule</title>
<path fill="none" stroke="black" d="M1647.88,-122.27C1647.88,-140.56 1647.88,-166 1647.88,-166 1647.88,-166 1003.5,-166 1003.5,-166"/>
<polygon fill="black" stroke="black" points="1003.5,-162.5 993.5,-166 1003.5,-169.5 1003.5,-162.5"/>
</g>
<!-- CardGridComponent -->
<g id="node3" class="node">
<title>CardGridComponent</title>
<polygon fill="#8dd3c7" stroke="black" points="1603.2,-122 1600.2,-126 1579.2,-126 1576.2,-122 1468.8,-122 1468.8,-86 1603.2,-86 1603.2,-122"/>
<text text-anchor="middle" x="1536" y="-99.8" font-family="Times,serif" font-size="14.00">CardGridComponent</text>
</g>
<!-- CardGridComponent&#45;&gt;EmeraldModule -->
<g id="edge3" class="edge">
<title>CardGridComponent&#45;&gt;EmeraldModule</title>
<path fill="none" stroke="black" d="M1501.1,-122.03C1501.1,-139.06 1501.1,-162 1501.1,-162 1501.1,-162 1003.55,-162 1003.55,-162"/>
<polygon fill="black" stroke="black" points="1003.55,-158.5 993.55,-162 1003.55,-165.5 1003.55,-158.5"/>
</g>
<!-- CarouselComponent -->
<g id="node4" class="node">
<title>CarouselComponent</title>
<polygon fill="#8dd3c7" stroke="black" points="1450.59,-122 1447.59,-126 1426.59,-126 1423.59,-122 1319.41,-122 1319.41,-86 1450.59,-86 1450.59,-122"/>
<text text-anchor="middle" x="1385" y="-99.8" font-family="Times,serif" font-size="14.00">CarouselComponent</text>
</g>
<!-- CarouselComponent&#45;&gt;EmeraldModule -->
<g id="edge4" class="edge">
<title>CarouselComponent&#45;&gt;EmeraldModule</title>
<path fill="none" stroke="black" d="M1350.16,-122.01C1350.16,-138.05 1350.16,-159 1350.16,-159 1350.16,-159 1003.62,-159 1003.62,-159"/>
<polygon fill="black" stroke="black" points="1003.62,-155.5 993.62,-159 1003.62,-162.5 1003.62,-155.5"/>
</g>
<!-- FloatingActionButtonComponent -->
<g id="node5" class="node">
<title>FloatingActionButtonComponent</title>
<polygon fill="#8dd3c7" stroke="black" points="1301.22,-122 1298.22,-126 1277.22,-126 1274.22,-122 1096.78,-122 1096.78,-86 1301.22,-86 1301.22,-122"/>
<text text-anchor="middle" x="1199" y="-99.8" font-family="Times,serif" font-size="14.00">FloatingActionButtonComponent</text>
</g>
<!-- FloatingActionButtonComponent&#45;&gt;EmeraldModule -->
<g id="edge5" class="edge">
<title>FloatingActionButtonComponent&#45;&gt;EmeraldModule</title>
<path fill="none" stroke="black" d="M1126.26,-122.12C1126.26,-136.78 1126.26,-155 1126.26,-155 1126.26,-155 1003.87,-155 1003.87,-155"/>
<polygon fill="black" stroke="black" points="1003.87,-151.5 993.87,-155 1003.87,-158.5 1003.87,-151.5"/>
</g>
<!-- InfoPanelComponent -->
<g id="node6" class="node">
<title>InfoPanelComponent</title>
<polygon fill="#8dd3c7" stroke="black" points="1078.76,-122 1075.76,-126 1054.76,-126 1051.76,-122 943.24,-122 943.24,-86 1078.76,-86 1078.76,-122"/>
<text text-anchor="middle" x="1011" y="-99.8" font-family="Times,serif" font-size="14.00">InfoPanelComponent</text>
</g>
<!-- InfoPanelComponent&#45;&gt;EmeraldModule -->
<g id="edge6" class="edge">
<title>InfoPanelComponent&#45;&gt;EmeraldModule</title>
<path fill="none" stroke="black" d="M968.3,-122.11C968.3,-122.11 968.3,-140.99 968.3,-140.99"/>
<polygon fill="black" stroke="black" points="964.8,-140.99 968.3,-150.99 971.8,-140.99 964.8,-140.99"/>
</g>
<!-- LabelComponent -->
<g id="node7" class="node">
<title>LabelComponent</title>
<polygon fill="#8dd3c7" stroke="black" points="925.7,-122 922.7,-126 901.7,-126 898.7,-122 812.3,-122 812.3,-86 925.7,-86 925.7,-122"/>
<text text-anchor="middle" x="869" y="-99.8" font-family="Times,serif" font-size="14.00">LabelComponent</text>
</g>
<!-- LabelComponent&#45;&gt;EmeraldModule -->
<g id="edge7" class="edge">
<title>LabelComponent&#45;&gt;EmeraldModule</title>
<path fill="none" stroke="black" d="M906.06,-122.11C906.06,-122.11 906.06,-140.99 906.06,-140.99"/>
<polygon fill="black" stroke="black" points="902.56,-140.99 906.06,-150.99 909.56,-140.99 902.56,-140.99"/>
</g>
<!-- PageHeaderComponent -->
<g id="node8" class="node">
<title>PageHeaderComponent</title>
<polygon fill="#8dd3c7" stroke="black" points="794.46,-122 791.46,-126 770.46,-126 767.46,-122 645.54,-122 645.54,-86 794.46,-86 794.46,-122"/>
<text text-anchor="middle" x="720" y="-99.8" font-family="Times,serif" font-size="14.00">PageHeaderComponent</text>
</g>
<!-- PageHeaderComponent&#45;&gt;EmeraldModule -->
<g id="edge8" class="edge">
<title>PageHeaderComponent&#45;&gt;EmeraldModule</title>
<path fill="none" stroke="black" d="M752.62,-122.12C752.62,-136.78 752.62,-155 752.62,-155 752.62,-155 876.31,-155 876.31,-155"/>
<polygon fill="black" stroke="black" points="876.31,-158.5 886.31,-155 876.31,-151.5 876.31,-158.5"/>
</g>
<!-- PagerComponent -->
<g id="node9" class="node">
<title>PagerComponent</title>
<polygon fill="#8dd3c7" stroke="black" points="627.7,-122 624.7,-126 603.7,-126 600.7,-122 514.3,-122 514.3,-86 627.7,-86 627.7,-122"/>
<text text-anchor="middle" x="571" y="-99.8" font-family="Times,serif" font-size="14.00">PagerComponent</text>
</g>
<!-- PagerComponent&#45;&gt;EmeraldModule -->
<g id="edge9" class="edge">
<title>PagerComponent&#45;&gt;EmeraldModule</title>
<path fill="none" stroke="black" d="M601.62,-122.01C601.62,-138.05 601.62,-159 601.62,-159 601.62,-159 876.38,-159 876.38,-159"/>
<polygon fill="black" stroke="black" points="876.38,-162.5 886.38,-159 876.38,-155.5 876.38,-162.5"/>
</g>
<!-- SkeletonLoaderComponent -->
<g id="node10" class="node">
<title>SkeletonLoaderComponent</title>
<polygon fill="#8dd3c7" stroke="black" points="495.97,-122 492.97,-126 471.97,-126 468.97,-122 326.03,-122 326.03,-86 495.97,-86 495.97,-122"/>
<text text-anchor="middle" x="411" y="-99.8" font-family="Times,serif" font-size="14.00">SkeletonLoaderComponent</text>
</g>
<!-- SkeletonLoaderComponent&#45;&gt;EmeraldModule -->
<g id="edge10" class="edge">
<title>SkeletonLoaderComponent&#45;&gt;EmeraldModule</title>
<path fill="none" stroke="black" d="M440.12,-122.03C440.12,-139.06 440.12,-162 440.12,-162 440.12,-162 876.5,-162 876.5,-162"/>
<polygon fill="black" stroke="black" points="876.5,-165.5 886.5,-162 876.5,-158.5 876.5,-165.5"/>
</g>
<!-- TinderCardComponent -->
<g id="node11" class="node">
<title>TinderCardComponent</title>
<polygon fill="#8dd3c7" stroke="black" points="307.86,-122 304.86,-126 283.86,-126 280.86,-122 162.14,-122 162.14,-86 307.86,-86 307.86,-122"/>
<text text-anchor="middle" x="235" y="-99.8" font-family="Times,serif" font-size="14.00">TinderCardComponent</text>
</g>
<!-- TinderCardComponent&#45;&gt;EmeraldModule -->
<g id="edge11" class="edge">
<title>TinderCardComponent&#45;&gt;EmeraldModule</title>
<path fill="none" stroke="black" d="M274.84,-122.27C274.84,-140.56 274.84,-166 274.84,-166 274.84,-166 876.41,-166 876.41,-166"/>
<polygon fill="black" stroke="black" points="876.41,-169.5 886.41,-166 876.41,-162.5 876.41,-169.5"/>
</g>
<!-- ToggleComponent -->
<g id="node12" class="node">
<title>ToggleComponent</title>
<polygon fill="#8dd3c7" stroke="black" points="144.49,-122 141.49,-126 120.49,-126 117.49,-122 23.51,-122 23.51,-86 144.49,-86 144.49,-122"/>
<text text-anchor="middle" x="84" y="-99.8" font-family="Times,serif" font-size="14.00">ToggleComponent</text>
</g>
<!-- ToggleComponent&#45;&gt;EmeraldModule -->
<g id="edge12" class="edge">
<title>ToggleComponent&#45;&gt;EmeraldModule</title>
<path fill="none" stroke="black" d="M84,-122.11C84,-141.34 84,-169 84,-169 84,-169 876.45,-169 876.45,-169"/>
<polygon fill="black" stroke="black" points="876.45,-172.5 886.45,-169 876.45,-165.5 876.45,-172.5"/>
</g>
<!-- AvatarComponent  -->
<g id="node14" class="node">
<title>AvatarComponent </title>
<polygon fill="#fb8072" stroke="black" points="1674.42,-252 1551.58,-252 1551.58,-216 1674.42,-216 1674.42,-252"/>
<text text-anchor="middle" x="1613" y="-229.8" font-family="Times,serif" font-size="14.00">AvatarComponent </text>
</g>
<!-- EmeraldModule&#45;&gt;AvatarComponent  -->
<g id="edge13" class="edge">
<title>EmeraldModule&#45;&gt;AvatarComponent </title>
<path fill="none" stroke="black" stroke-dasharray="5,2" d="M993.51,-173C1146.93,-173 1577.32,-173 1577.32,-173 1577.32,-173 1577.32,-205.7 1577.32,-205.7"/>
<polygon fill="black" stroke="black" points="1573.82,-205.7 1577.32,-215.7 1580.82,-205.7 1573.82,-205.7"/>
</g>
<!-- CarouselComponent  -->
<g id="node15" class="node">
<title>CarouselComponent </title>
<polygon fill="#fb8072" stroke="black" points="1533.09,-252 1398.91,-252 1398.91,-216 1533.09,-216 1533.09,-252"/>
<text text-anchor="middle" x="1466" y="-229.8" font-family="Times,serif" font-size="14.00">CarouselComponent </text>
</g>
<!-- EmeraldModule&#45;&gt;CarouselComponent  -->
<g id="edge14" class="edge">
<title>EmeraldModule&#45;&gt;CarouselComponent </title>
<path fill="none" stroke="black" stroke-dasharray="5,2" d="M993.72,-177C1119.89,-177 1424.62,-177 1424.62,-177 1424.62,-177 1424.62,-205.96 1424.62,-205.96"/>
<polygon fill="black" stroke="black" points="1421.13,-205.96 1424.62,-215.96 1428.13,-205.96 1421.13,-205.96"/>
</g>
<!-- FloatingActionButtonComponent  -->
<g id="node16" class="node">
<title>FloatingActionButtonComponent </title>
<polygon fill="#fb8072" stroke="black" points="1380.72,-252 1173.28,-252 1173.28,-216 1380.72,-216 1380.72,-252"/>
<text text-anchor="middle" x="1277" y="-229.8" font-family="Times,serif" font-size="14.00">FloatingActionButtonComponent </text>
</g>
<!-- EmeraldModule&#45;&gt;FloatingActionButtonComponent  -->
<g id="edge15" class="edge">
<title>EmeraldModule&#45;&gt;FloatingActionButtonComponent </title>
<path fill="none" stroke="black" stroke-dasharray="5,2" d="M993.81,-180C1079.43,-180 1237.12,-180 1237.12,-180 1237.12,-180 1237.12,-205.72 1237.12,-205.72"/>
<polygon fill="black" stroke="black" points="1233.63,-205.72 1237.12,-215.72 1240.63,-205.72 1233.63,-205.72"/>
</g>
<!-- InfoPanelComponent  -->
<g id="node17" class="node">
<title>InfoPanelComponent </title>
<polygon fill="#fb8072" stroke="black" points="1155.76,-252 1016.24,-252 1016.24,-216 1155.76,-216 1155.76,-252"/>
<text text-anchor="middle" x="1086" y="-229.8" font-family="Times,serif" font-size="14.00">InfoPanelComponent </text>
</g>
<!-- EmeraldModule&#45;&gt;InfoPanelComponent  -->
<g id="edge16" class="edge">
<title>EmeraldModule&#45;&gt;InfoPanelComponent </title>
<path fill="none" stroke="black" stroke-dasharray="5,2" d="M993.5,-184C1020.51,-184 1047.62,-184 1047.62,-184 1047.62,-184 1047.62,-205.95 1047.62,-205.95"/>
<polygon fill="black" stroke="black" points="1044.13,-205.95 1047.62,-215.95 1051.13,-205.95 1044.13,-205.95"/>
</g>
<!-- LabelComponent  -->
<g id="node18" class="node">
<title>LabelComponent </title>
<polygon fill="#fb8072" stroke="black" points="998.21,-252 881.79,-252 881.79,-216 998.21,-216 998.21,-252"/>
<text text-anchor="middle" x="940" y="-229.8" font-family="Times,serif" font-size="14.00">LabelComponent </text>
</g>
<!-- EmeraldModule&#45;&gt;LabelComponent  -->
<g id="edge17" class="edge">
<title>EmeraldModule&#45;&gt;LabelComponent </title>
<path fill="none" stroke="black" stroke-dasharray="5,2" d="M940,-187.11C940,-187.11 940,-205.99 940,-205.99"/>
<polygon fill="black" stroke="black" points="936.5,-205.99 940,-215.99 943.5,-205.99 936.5,-205.99"/>
</g>
<!-- PageHeaderComponent  -->
<g id="node19" class="node">
<title>PageHeaderComponent </title>
<polygon fill="#fb8072" stroke="black" points="863.46,-252 710.54,-252 710.54,-216 863.46,-216 863.46,-252"/>
<text text-anchor="middle" x="787" y="-229.8" font-family="Times,serif" font-size="14.00">PageHeaderComponent </text>
</g>
<!-- EmeraldModule&#45;&gt;PageHeaderComponent  -->
<g id="edge18" class="edge">
<title>EmeraldModule&#45;&gt;PageHeaderComponent </title>
<path fill="none" stroke="black" stroke-dasharray="5,2" d="M886.51,-184C861.79,-184 837.81,-184 837.81,-184 837.81,-184 837.81,-205.95 837.81,-205.95"/>
<polygon fill="black" stroke="black" points="834.31,-205.95 837.81,-215.95 841.31,-205.95 834.31,-205.95"/>
</g>
<!-- PagerComponent  -->
<g id="node20" class="node">
<title>PagerComponent </title>
<polygon fill="#fb8072" stroke="black" points="692.21,-252 575.79,-252 575.79,-216 692.21,-216 692.21,-252"/>
<text text-anchor="middle" x="634" y="-229.8" font-family="Times,serif" font-size="14.00">PagerComponent </text>
</g>
<!-- EmeraldModule&#45;&gt;PagerComponent  -->
<g id="edge19" class="edge">
<title>EmeraldModule&#45;&gt;PagerComponent </title>
<path fill="none" stroke="black" stroke-dasharray="5,2" d="M886.45,-180C807.45,-180 668.94,-180 668.94,-180 668.94,-180 668.94,-205.72 668.94,-205.72"/>
<polygon fill="black" stroke="black" points="665.44,-205.72 668.94,-215.72 672.44,-205.72 665.44,-205.72"/>
</g>
<!-- SkeletonLoaderComponent  -->
<g id="node21" class="node">
<title>SkeletonLoaderComponent </title>
<polygon fill="#fb8072" stroke="black" points="557.97,-252 384.03,-252 384.03,-216 557.97,-216 557.97,-252"/>
<text text-anchor="middle" x="471" y="-229.8" font-family="Times,serif" font-size="14.00">SkeletonLoaderComponent </text>
</g>
<!-- EmeraldModule&#45;&gt;SkeletonLoaderComponent  -->
<g id="edge20" class="edge">
<title>EmeraldModule&#45;&gt;SkeletonLoaderComponent </title>
<path fill="none" stroke="black" stroke-dasharray="5,2" d="M886.36,-177C776.48,-177 536.07,-177 536.07,-177 536.07,-177 536.07,-205.96 536.07,-205.96"/>
<polygon fill="black" stroke="black" points="532.57,-205.96 536.07,-215.96 539.57,-205.96 532.57,-205.96"/>
</g>
<!-- ToggleComponent  -->
<g id="node22" class="node">
<title>ToggleComponent </title>
<polygon fill="#fb8072" stroke="black" points="366.49,-252 241.51,-252 241.51,-216 366.49,-216 366.49,-252"/>
<text text-anchor="middle" x="304" y="-229.8" font-family="Times,serif" font-size="14.00">ToggleComponent </text>
</g>
<!-- EmeraldModule&#45;&gt;ToggleComponent  -->
<g id="edge21" class="edge">
<title>EmeraldModule&#45;&gt;ToggleComponent </title>
<path fill="none" stroke="black" stroke-dasharray="5,2" d="M886.51,-173C740.54,-173 346.13,-173 346.13,-173 346.13,-173 346.13,-205.7 346.13,-205.7"/>
<polygon fill="black" stroke="black" points="342.63,-205.7 346.13,-215.7 349.63,-205.7 342.63,-205.7"/>
</g>
</g>
</svg>
