<?xml version="1.0" encoding="UTF-8" standalone="no"?>
<!DOCTYPE svg PUBLIC "-//W3C//DTD SVG 1.1//EN"
 "http://www.w3.org/Graphics/SVG/1.1/DTD/svg11.dtd">
<!-- Generated by graphviz version 2.47.0 (20210316.0004)
 -->
<!-- Title: dependencies Pages: 1 -->
<svg width="3052pt" height="211pt"
 viewBox="0.00 0.00 3052.00 211.00" xmlns="http://www.w3.org/2000/svg" xmlns:xlink="http://www.w3.org/1999/xlink">
<g id="graph0" class="graph" transform="scale(1 1) rotate(0) translate(4 207)">
<title>dependencies</title>
<polygon fill="white" stroke="transparent" points="-4,4 -4,-207 3048,-207 3048,4 -4,4"/>
<text text-anchor="start" x="1501.01" y="-42.4" font-family="Times-12" font-weight="bold" font-size="14.00">Legend</text>
<polygon fill="#ffffb3" stroke="transparent" points="1288,-10 1288,-30 1308,-30 1308,-10 1288,-10"/>
<text text-anchor="start" x="1311.63" y="-15.4" font-family="Times-12" font-size="14.00"> &#160;Declarations</text>
<polygon fill="#8dd3c7" stroke="transparent" points="1401,-10 1401,-30 1421,-30 1421,-10 1401,-10"/>
<text text-anchor="start" x="1424.73" y="-15.4" font-family="Times-12" font-size="14.00"> &#160;Module</text>
<polygon fill="#80b1d3" stroke="transparent" points="1487,-10 1487,-30 1507,-30 1507,-10 1487,-10"/>
<text text-anchor="start" x="1510.78" y="-15.4" font-family="Times-12" font-size="14.00"> &#160;Bootstrap</text>
<polygon fill="#fdb462" stroke="transparent" points="1584,-10 1584,-30 1604,-30 1604,-10 1584,-10"/>
<text text-anchor="start" x="1607.67" y="-15.4" font-family="Times-12" font-size="14.00"> &#160;Providers</text>
<polygon fill="#fb8072" stroke="transparent" points="1680,-10 1680,-30 1700,-30 1700,-10 1680,-10"/>
<text text-anchor="start" x="1703.73" y="-15.4" font-family="Times-12" font-size="14.00"> &#160;Exports</text>
<g id="clust1" class="cluster">
<title>cluster_CoreModule</title>
<polygon fill="none" stroke="black" stroke-dasharray="1,5" points="8,-70 8,-195 3036,-195 3036,-70 8,-70"/>
</g>
<g id="clust6" class="cluster">
<title>cluster_CoreModule_providers</title>
<polygon fill="none" stroke="black" points="16,-78 16,-130 3028,-130 3028,-78 16,-78"/>
</g>
<!-- AuthService -->
<g id="node1" class="node">
<title>AuthService</title>
<ellipse fill="#fdb462" stroke="black" cx="2961" cy="-104" rx="59.11" ry="18"/>
<text text-anchor="middle" x="2961" y="-99.8" font-family="Times,serif" font-size="14.00">AuthService</text>
</g>
<!-- CoreModule -->
<g id="node19" class="node">
<title>CoreModule</title>
<polygon fill="#8dd3c7" stroke="black" points="1553.26,-187 1550.26,-191 1529.26,-191 1526.26,-187 1466.74,-187 1466.74,-151 1553.26,-151 1553.26,-187"/>
<text text-anchor="middle" x="1510" y="-164.8" font-family="Times,serif" font-size="14.00">CoreModule</text>
</g>
<!-- AuthService&#45;&gt;CoreModule -->
<g id="edge1" class="edge">
<title>AuthService&#45;&gt;CoreModule</title>
<path fill="none" stroke="black" d="M2961,-122.32C2961,-145.66 2961,-183 2961,-183 2961,-183 1563.43,-183 1563.43,-183"/>
<polygon fill="black" stroke="black" points="1563.43,-179.5 1553.43,-183 1563.43,-186.5 1563.43,-179.5"/>
</g>
<!-- CachingService -->
<g id="node2" class="node">
<title>CachingService</title>
<ellipse fill="#fdb462" stroke="black" cx="2812" cy="-104" rx="72.35" ry="18"/>
<text text-anchor="middle" x="2812" y="-99.8" font-family="Times,serif" font-size="14.00">CachingService</text>
</g>
<!-- CachingService&#45;&gt;CoreModule -->
<g id="edge2" class="edge">
<title>CachingService&#45;&gt;CoreModule</title>
<path fill="none" stroke="black" d="M2812,-122.16C2812,-144.35 2812,-179 2812,-179 2812,-179 1563.32,-179 1563.32,-179"/>
<polygon fill="black" stroke="black" points="1563.32,-175.5 1553.32,-179 1563.32,-182.5 1563.32,-175.5"/>
</g>
<!-- ContentSanitizerService -->
<g id="node3" class="node">
<title>ContentSanitizerService</title>
<ellipse fill="#fdb462" stroke="black" cx="2617" cy="-104" rx="104.79" ry="18"/>
<text text-anchor="middle" x="2617" y="-99.8" font-family="Times,serif" font-size="14.00">ContentSanitizerService</text>
</g>
<!-- ContentSanitizerService&#45;&gt;CoreModule -->
<g id="edge3" class="edge">
<title>ContentSanitizerService&#45;&gt;CoreModule</title>
<path fill="none" stroke="black" d="M2617,-122.28C2617,-143.32 2617,-175 2617,-175 2617,-175 1563.4,-175 1563.4,-175"/>
<polygon fill="black" stroke="black" points="1563.4,-171.5 1553.4,-175 1563.4,-178.5 1563.4,-171.5"/>
</g>
<!-- CryptoService -->
<g id="node4" class="node">
<title>CryptoService</title>
<ellipse fill="#fdb462" stroke="black" cx="2427" cy="-104" rx="66.63" ry="18"/>
<text text-anchor="middle" x="2427" y="-99.8" font-family="Times,serif" font-size="14.00">CryptoService</text>
</g>
<!-- CryptoService&#45;&gt;CoreModule -->
<g id="edge4" class="edge">
<title>CryptoService&#45;&gt;CoreModule</title>
<path fill="none" stroke="black" d="M2427,-122.31C2427,-142.15 2427,-171 2427,-171 2427,-171 1563.3,-171 1563.3,-171"/>
<polygon fill="black" stroke="black" points="1563.3,-167.5 1553.3,-171 1563.3,-174.5 1563.3,-167.5"/>
</g>
<!-- CsrfService -->
<g id="node5" class="node">
<title>CsrfService</title>
<ellipse fill="#fdb462" stroke="black" cx="2286" cy="-104" rx="56.73" ry="18"/>
<text text-anchor="middle" x="2286" y="-99.8" font-family="Times,serif" font-size="14.00">CsrfService</text>
</g>
<!-- CsrfService&#45;&gt;CoreModule -->
<g id="edge5" class="edge">
<title>CsrfService&#45;&gt;CoreModule</title>
<path fill="none" stroke="black" d="M2286,-122.22C2286,-140.83 2286,-167 2286,-167 2286,-167 1563.38,-167 1563.38,-167"/>
<polygon fill="black" stroke="black" points="1563.38,-163.5 1553.38,-167 1563.38,-170.5 1563.38,-163.5"/>
</g>
<!-- EncryptionService -->
<g id="node6" class="node">
<title>EncryptionService</title>
<ellipse fill="#fdb462" stroke="black" cx="2128" cy="-104" rx="82.81" ry="18"/>
<text text-anchor="middle" x="2128" y="-99.8" font-family="Times,serif" font-size="14.00">EncryptionService</text>
</g>
<!-- EncryptionService&#45;&gt;CoreModule -->
<g id="edge6" class="edge">
<title>EncryptionService&#45;&gt;CoreModule</title>
<path fill="none" stroke="black" d="M2128,-122.02C2128,-139.37 2128,-163 2128,-163 2128,-163 1563.46,-163 1563.46,-163"/>
<polygon fill="black" stroke="black" points="1563.46,-159.5 1553.46,-163 1563.46,-166.5 1563.46,-159.5"/>
</g>
<!-- FavoriteService -->
<g id="node7" class="node">
<title>FavoriteService</title>
<ellipse fill="#fdb462" stroke="black" cx="1955" cy="-104" rx="72.35" ry="18"/>
<text text-anchor="middle" x="1955" y="-99.8" font-family="Times,serif" font-size="14.00">FavoriteService</text>
</g>
<!-- FavoriteService&#45;&gt;CoreModule -->
<g id="edge7" class="edge">
<title>FavoriteService&#45;&gt;CoreModule</title>
<path fill="none" stroke="black" d="M1955,-122.01C1955,-138.05 1955,-159 1955,-159 1955,-159 1563.48,-159 1563.48,-159"/>
<polygon fill="black" stroke="black" points="1563.48,-155.5 1553.48,-159 1563.48,-162.5 1563.48,-155.5"/>
</g>
<!-- GeocodingService -->
<g id="node8" class="node">
<title>GeocodingService</title>
<ellipse fill="#fdb462" stroke="black" cx="1782" cy="-104" rx="82.23" ry="18"/>
<text text-anchor="middle" x="1782" y="-99.8" font-family="Times,serif" font-size="14.00">GeocodingService</text>
</g>
<!-- GeocodingService&#45;&gt;CoreModule -->
<g id="edge8" class="edge">
<title>GeocodingService&#45;&gt;CoreModule</title>
<path fill="none" stroke="black" d="M1782,-122.12C1782,-136.78 1782,-155 1782,-155 1782,-155 1563.4,-155 1563.4,-155"/>
<polygon fill="black" stroke="black" points="1563.4,-151.5 1553.4,-155 1563.4,-158.5 1563.4,-151.5"/>
</g>
<!-- LocationService -->
<g id="node9" class="node">
<title>LocationService</title>
<ellipse fill="#fdb462" stroke="black" cx="1607" cy="-104" rx="74.14" ry="18"/>
<text text-anchor="middle" x="1607" y="-99.8" font-family="Times,serif" font-size="14.00">LocationService</text>
</g>
<!-- LocationService&#45;&gt;CoreModule -->
<g id="edge9" class="edge">
<title>LocationService&#45;&gt;CoreModule</title>
<path fill="none" stroke="black" d="M1543.03,-113.31C1543.03,-113.31 1543.03,-140.85 1543.03,-140.85"/>
<polygon fill="black" stroke="black" points="1539.53,-140.85 1543.03,-150.85 1546.53,-140.85 1539.53,-140.85"/>
</g>
<!-- MapMonitoringService -->
<g id="node10" class="node">
<title>MapMonitoringService</title>
<ellipse fill="#fdb462" stroke="black" cx="1413" cy="-104" rx="101.87" ry="18"/>
<text text-anchor="middle" x="1413" y="-99.8" font-family="Times,serif" font-size="14.00">MapMonitoringService</text>
</g>
<!-- MapMonitoringService&#45;&gt;CoreModule -->
<g id="edge10" class="edge">
<title>MapMonitoringService&#45;&gt;CoreModule</title>
<path fill="none" stroke="black" d="M1490.65,-115.92C1490.65,-115.92 1490.65,-140.77 1490.65,-140.77"/>
<polygon fill="black" stroke="black" points="1487.15,-140.77 1490.65,-150.77 1494.15,-140.77 1487.15,-140.77"/>
</g>
<!-- MediaService -->
<g id="node11" class="node">
<title>MediaService</title>
<ellipse fill="#fdb462" stroke="black" cx="1229" cy="-104" rx="64.82" ry="18"/>
<text text-anchor="middle" x="1229" y="-99.8" font-family="Times,serif" font-size="14.00">MediaService</text>
</g>
<!-- MediaService&#45;&gt;CoreModule -->
<g id="edge11" class="edge">
<title>MediaService&#45;&gt;CoreModule</title>
<path fill="none" stroke="black" d="M1229,-122.12C1229,-136.78 1229,-155 1229,-155 1229,-155 1456.71,-155 1456.71,-155"/>
<polygon fill="black" stroke="black" points="1456.71,-158.5 1466.71,-155 1456.71,-151.5 1456.71,-158.5"/>
</g>
<!-- NotificationService -->
<g id="node12" class="node">
<title>NotificationService</title>
<ellipse fill="#fdb462" stroke="black" cx="1060" cy="-104" rx="86.81" ry="18"/>
<text text-anchor="middle" x="1060" y="-99.8" font-family="Times,serif" font-size="14.00">NotificationService</text>
</g>
<!-- NotificationService&#45;&gt;CoreModule -->
<g id="edge12" class="edge">
<title>NotificationService&#45;&gt;CoreModule</title>
<path fill="none" stroke="black" d="M1060,-122.01C1060,-138.05 1060,-159 1060,-159 1060,-159 1456.44,-159 1456.44,-159"/>
<polygon fill="black" stroke="black" points="1456.44,-162.5 1466.44,-159 1456.44,-155.5 1456.44,-162.5"/>
</g>
<!-- ProfileService -->
<g id="node13" class="node">
<title>ProfileService</title>
<ellipse fill="#fdb462" stroke="black" cx="889" cy="-104" rx="66.05" ry="18"/>
<text text-anchor="middle" x="889" y="-99.8" font-family="Times,serif" font-size="14.00">ProfileService</text>
</g>
<!-- ProfileService&#45;&gt;CoreModule -->
<g id="edge13" class="edge">
<title>ProfileService&#45;&gt;CoreModule</title>
<path fill="none" stroke="black" d="M889,-122.02C889,-139.37 889,-163 889,-163 889,-163 1456.33,-163 1456.33,-163"/>
<polygon fill="black" stroke="black" points="1456.33,-166.5 1466.33,-163 1456.33,-159.5 1456.33,-166.5"/>
</g>
<!-- SafetyService -->
<g id="node14" class="node">
<title>SafetyService</title>
<ellipse fill="#fdb462" stroke="black" cx="740" cy="-104" rx="64.82" ry="18"/>
<text text-anchor="middle" x="740" y="-99.8" font-family="Times,serif" font-size="14.00">SafetyService</text>
</g>
<!-- SafetyService&#45;&gt;CoreModule -->
<g id="edge14" class="edge">
<title>SafetyService&#45;&gt;CoreModule</title>
<path fill="none" stroke="black" d="M740,-122.22C740,-140.83 740,-167 740,-167 740,-167 1456.67,-167 1456.67,-167"/>
<polygon fill="black" stroke="black" points="1456.67,-170.5 1466.67,-167 1456.67,-163.5 1456.67,-170.5"/>
</g>
<!-- TelemetryService -->
<g id="node15" class="node">
<title>TelemetryService</title>
<ellipse fill="#fdb462" stroke="black" cx="578" cy="-104" rx="79.85" ry="18"/>
<text text-anchor="middle" x="578" y="-99.8" font-family="Times,serif" font-size="14.00">TelemetryService</text>
</g>
<!-- TelemetryService&#45;&gt;CoreModule -->
<g id="edge15" class="edge">
<title>TelemetryService&#45;&gt;CoreModule</title>
<path fill="none" stroke="black" d="M578,-122.31C578,-142.15 578,-171 578,-171 578,-171 1456.61,-171 1456.61,-171"/>
<polygon fill="black" stroke="black" points="1456.61,-174.5 1466.61,-171 1456.61,-167.5 1456.61,-174.5"/>
</g>
<!-- TravelService -->
<g id="node16" class="node">
<title>TravelService</title>
<ellipse fill="#fdb462" stroke="black" cx="415" cy="-104" rx="65.38" ry="18"/>
<text text-anchor="middle" x="415" y="-99.8" font-family="Times,serif" font-size="14.00">TravelService</text>
</g>
<!-- TravelService&#45;&gt;CoreModule -->
<g id="edge16" class="edge">
<title>TravelService&#45;&gt;CoreModule</title>
<path fill="none" stroke="black" d="M415,-122.28C415,-143.32 415,-175 415,-175 415,-175 1456.74,-175 1456.74,-175"/>
<polygon fill="black" stroke="black" points="1456.74,-178.5 1466.74,-175 1456.74,-171.5 1456.74,-178.5"/>
</g>
<!-- UserService -->
<g id="node17" class="node">
<title>UserService</title>
<ellipse fill="#fdb462" stroke="black" cx="274" cy="-104" rx="58.44" ry="18"/>
<text text-anchor="middle" x="274" y="-99.8" font-family="Times,serif" font-size="14.00">UserService</text>
</g>
<!-- UserService&#45;&gt;CoreModule -->
<g id="edge17" class="edge">
<title>UserService&#45;&gt;CoreModule</title>
<path fill="none" stroke="black" d="M274,-122.16C274,-144.35 274,-179 274,-179 274,-179 1456.73,-179 1456.73,-179"/>
<polygon fill="black" stroke="black" points="1456.73,-182.5 1466.73,-179 1456.73,-175.5 1456.73,-182.5"/>
</g>
<!-- VerificationService -->
<g id="node18" class="node">
<title>VerificationService</title>
<ellipse fill="#fdb462" stroke="black" cx="111" cy="-104" rx="86.79" ry="18"/>
<text text-anchor="middle" x="111" y="-99.8" font-family="Times,serif" font-size="14.00">VerificationService</text>
</g>
<!-- VerificationService&#45;&gt;CoreModule -->
<g id="edge18" class="edge">
<title>VerificationService&#45;&gt;CoreModule</title>
<path fill="none" stroke="black" d="M111,-122.32C111,-145.66 111,-183 111,-183 111,-183 1456.6,-183 1456.6,-183"/>
<polygon fill="black" stroke="black" points="1456.6,-186.5 1466.6,-183 1456.6,-179.5 1456.6,-186.5"/>
</g>
</g>
</svg>
