<?xml version="1.0" encoding="UTF-8" standalone="no"?>
<!DOCTYPE svg PUBLIC "-//W3C//DTD SVG 1.1//EN"
 "http://www.w3.org/Graphics/SVG/1.1/DTD/svg11.dtd">
<!-- Generated by graphviz version 2.47.0 (20210316.0004)
 -->
<!-- Title: dependencies Pages: 1 -->
<svg width="858pt" height="211pt"
 viewBox="0.00 0.00 858.00 211.00" xmlns="http://www.w3.org/2000/svg" xmlns:xlink="http://www.w3.org/1999/xlink">
<g id="graph0" class="graph" transform="scale(1 1) rotate(0) translate(4 207)">
<title>dependencies</title>
<polygon fill="white" stroke="transparent" points="-4,4 -4,-207 854,-207 854,4 -4,4"/>
<text text-anchor="start" x="404.01" y="-42.4" font-family="Times-12" font-weight="bold" font-size="14.00">Legend</text>
<polygon fill="#ffffb3" stroke="transparent" points="191,-10 191,-30 211,-30 211,-10 191,-10"/>
<text text-anchor="start" x="214.63" y="-15.4" font-family="Times-12" font-size="14.00"> &#160;Declarations</text>
<polygon fill="#8dd3c7" stroke="transparent" points="304,-10 304,-30 324,-30 324,-10 304,-10"/>
<text text-anchor="start" x="327.73" y="-15.4" font-family="Times-12" font-size="14.00"> &#160;Module</text>
<polygon fill="#80b1d3" stroke="transparent" points="390,-10 390,-30 410,-30 410,-10 390,-10"/>
<text text-anchor="start" x="413.78" y="-15.4" font-family="Times-12" font-size="14.00"> &#160;Bootstrap</text>
<polygon fill="#fdb462" stroke="transparent" points="487,-10 487,-30 507,-30 507,-10 487,-10"/>
<text text-anchor="start" x="510.67" y="-15.4" font-family="Times-12" font-size="14.00"> &#160;Providers</text>
<polygon fill="#fb8072" stroke="transparent" points="583,-10 583,-30 603,-30 603,-10 583,-10"/>
<text text-anchor="start" x="606.73" y="-15.4" font-family="Times-12" font-size="14.00"> &#160;Exports</text>
<g id="clust1" class="cluster">
<title>cluster_FeaturesModule</title>
<polygon fill="none" stroke="black" stroke-dasharray="1,5" points="8,-70 8,-195 842,-195 842,-70 8,-70"/>
</g>
<g id="clust4" class="cluster">
<title>cluster_FeaturesModule_imports</title>
<polygon fill="none" stroke="black" points="178,-78 178,-130 834,-130 834,-78 178,-78"/>
</g>
<g id="clust2" class="cluster">
<title>cluster_FeaturesModule_declarations</title>
<polygon fill="none" stroke="black" points="16,-78 16,-130 170,-130 170,-78 16,-78"/>
</g>
<!-- AdDetailsComponent -->
<g id="node1" class="node">
<title>AdDetailsComponent</title>
<polygon fill="#ffffb3" stroke="black" points="162.09,-122 23.91,-122 23.91,-86 162.09,-86 162.09,-122"/>
<text text-anchor="middle" x="93" y="-99.8" font-family="Times,serif" font-size="14.00">AdDetailsComponent</text>
</g>
<!-- FeaturesModule -->
<g id="node2" class="node">
<title>FeaturesModule</title>
<polygon fill="#8dd3c7" stroke="black" points="488.47,-187 485.47,-191 464.47,-191 461.47,-187 381.53,-187 381.53,-151 488.47,-151 488.47,-187"/>
<text text-anchor="middle" x="435" y="-164.8" font-family="Times,serif" font-size="14.00">FeaturesModule</text>
</g>
<!-- AdDetailsComponent&#45;&gt;FeaturesModule -->
<g id="edge1" class="edge">
<title>AdDetailsComponent&#45;&gt;FeaturesModule</title>
<path fill="none" stroke="black" d="M93,-122.28C93,-143.32 93,-175 93,-175 93,-175 371.19,-175 371.19,-175"/>
<polygon fill="black" stroke="black" points="371.19,-178.5 381.19,-175 371.19,-171.5 371.19,-178.5"/>
</g>
<!-- ChatComponent -->
<g id="node3" class="node">
<title>ChatComponent</title>
<polygon fill="#8dd3c7" stroke="black" points="825.77,-122 822.77,-126 801.77,-126 798.77,-122 718.23,-122 718.23,-86 825.77,-86 825.77,-122"/>
<text text-anchor="middle" x="772" y="-99.8" font-family="Times,serif" font-size="14.00">ChatComponent</text>
</g>
<!-- ChatComponent&#45;&gt;FeaturesModule -->
<g id="edge2" class="edge">
<title>ChatComponent&#45;&gt;FeaturesModule</title>
<path fill="none" stroke="black" d="M772,-122.28C772,-143.32 772,-175 772,-175 772,-175 498.77,-175 498.77,-175"/>
<polygon fill="black" stroke="black" points="498.77,-171.5 488.77,-175 498.77,-178.5 498.77,-171.5"/>
</g>
<!-- GalleryComponent -->
<g id="node4" class="node">
<title>GalleryComponent</title>
<polygon fill="#8dd3c7" stroke="black" points="699.81,-122 696.81,-126 675.81,-126 672.81,-122 576.19,-122 576.19,-86 699.81,-86 699.81,-122"/>
<text text-anchor="middle" x="638" y="-99.8" font-family="Times,serif" font-size="14.00">GalleryComponent</text>
</g>
<!-- GalleryComponent&#45;&gt;FeaturesModule -->
<g id="edge3" class="edge">
<title>GalleryComponent&#45;&gt;FeaturesModule</title>
<path fill="none" stroke="black" d="M638,-122.02C638,-139.37 638,-163 638,-163 638,-163 498.6,-163 498.6,-163"/>
<polygon fill="black" stroke="black" points="498.6,-159.5 488.6,-163 498.6,-166.5 498.6,-159.5"/>
</g>
<!-- ProfileComponent -->
<g id="node5" class="node">
<title>ProfileComponent</title>
<polygon fill="#8dd3c7" stroke="black" points="558.93,-122 555.93,-126 534.93,-126 531.93,-122 439.07,-122 439.07,-86 558.93,-86 558.93,-122"/>
<text text-anchor="middle" x="499" y="-99.8" font-family="Times,serif" font-size="14.00">ProfileComponent</text>
</g>
<!-- ProfileComponent&#45;&gt;FeaturesModule -->
<g id="edge4" class="edge">
<title>ProfileComponent&#45;&gt;FeaturesModule</title>
<path fill="none" stroke="black" d="M463.88,-122.11C463.88,-122.11 463.88,-140.99 463.88,-140.99"/>
<polygon fill="black" stroke="black" points="460.39,-140.99 463.88,-150.99 467.39,-140.99 460.39,-140.99"/>
</g>
<!-- SharedModule -->
<g id="node6" class="node">
<title>SharedModule</title>
<polygon fill="#8dd3c7" stroke="black" points="421.42,-122 418.42,-126 397.42,-126 394.42,-122 322.58,-122 322.58,-86 421.42,-86 421.42,-122"/>
<text text-anchor="middle" x="372" y="-99.8" font-family="Times,serif" font-size="14.00">SharedModule</text>
</g>
<!-- SharedModule&#45;&gt;FeaturesModule -->
<g id="edge5" class="edge">
<title>SharedModule&#45;&gt;FeaturesModule</title>
<path fill="none" stroke="black" d="M401.36,-122.11C401.36,-122.11 401.36,-140.99 401.36,-140.99"/>
<polygon fill="black" stroke="black" points="397.86,-140.99 401.36,-150.99 404.86,-140.99 397.86,-140.99"/>
</g>
<!-- TinderComponent -->
<g id="node7" class="node">
<title>TinderComponent</title>
<polygon fill="#8dd3c7" stroke="black" points="304.15,-122 301.15,-126 280.15,-126 277.15,-122 185.85,-122 185.85,-86 304.15,-86 304.15,-122"/>
<text text-anchor="middle" x="245" y="-99.8" font-family="Times,serif" font-size="14.00">TinderComponent</text>
</g>
<!-- TinderComponent&#45;&gt;FeaturesModule -->
<g id="edge6" class="edge">
<title>TinderComponent&#45;&gt;FeaturesModule</title>
<path fill="none" stroke="black" d="M245,-122.02C245,-139.37 245,-163 245,-163 245,-163 371.32,-163 371.32,-163"/>
<polygon fill="black" stroke="black" points="371.32,-166.5 381.32,-163 371.32,-159.5 371.32,-166.5"/>
</g>
</g>
</svg>
