<?xml version="1.0" encoding="UTF-8" standalone="no"?>
<!DOCTYPE svg PUBLIC "-//W3C//DTD SVG 1.1//EN"
 "http://www.w3.org/Graphics/SVG/1.1/DTD/svg11.dtd">
<!-- Generated by graphviz version 2.47.0 (20210316.0004)
 -->
<!-- Title: dependencies Pages: 1 -->
<svg width="643pt" height="211pt"
 viewBox="0.00 0.00 643.00 211.00" xmlns="http://www.w3.org/2000/svg" xmlns:xlink="http://www.w3.org/1999/xlink">
<g id="graph0" class="graph" transform="scale(1 1) rotate(0) translate(4 207)">
<title>dependencies</title>
<polygon fill="white" stroke="transparent" points="-4,4 -4,-207 639,-207 639,4 -4,4"/>
<text text-anchor="start" x="296.51" y="-42.4" font-family="Times-12" font-weight="bold" font-size="14.00">Legend</text>
<polygon fill="#ffffb3" stroke="transparent" points="83.5,-10 83.5,-30 103.5,-30 103.5,-10 83.5,-10"/>
<text text-anchor="start" x="107.13" y="-15.4" font-family="Times-12" font-size="14.00"> &#160;Declarations</text>
<polygon fill="#8dd3c7" stroke="transparent" points="196.5,-10 196.5,-30 216.5,-30 216.5,-10 196.5,-10"/>
<text text-anchor="start" x="220.23" y="-15.4" font-family="Times-12" font-size="14.00"> &#160;Module</text>
<polygon fill="#80b1d3" stroke="transparent" points="282.5,-10 282.5,-30 302.5,-30 302.5,-10 282.5,-10"/>
<text text-anchor="start" x="306.28" y="-15.4" font-family="Times-12" font-size="14.00"> &#160;Bootstrap</text>
<polygon fill="#fdb462" stroke="transparent" points="379.5,-10 379.5,-30 399.5,-30 399.5,-10 379.5,-10"/>
<text text-anchor="start" x="403.17" y="-15.4" font-family="Times-12" font-size="14.00"> &#160;Providers</text>
<polygon fill="#fb8072" stroke="transparent" points="475.5,-10 475.5,-30 495.5,-30 495.5,-10 475.5,-10"/>
<text text-anchor="start" x="499.23" y="-15.4" font-family="Times-12" font-size="14.00"> &#160;Exports</text>
<g id="clust1" class="cluster">
<title>cluster_AdsModule</title>
<polygon fill="none" stroke="black" stroke-dasharray="1,5" points="8,-70 8,-195 627,-195 627,-70 8,-70"/>
</g>
<g id="clust3" class="cluster">
<title>cluster_AdsModule_imports</title>
<polygon fill="none" stroke="black" points="16,-78 16,-130 619,-130 619,-78 16,-78"/>
</g>
<!-- AdCreateComponent -->
<g id="node1" class="node">
<title>AdCreateComponent</title>
<polygon fill="#8dd3c7" stroke="black" points="611.47,-122 608.47,-126 587.47,-126 584.47,-122 476.53,-122 476.53,-86 611.47,-86 611.47,-122"/>
<text text-anchor="middle" x="544" y="-99.8" font-family="Times,serif" font-size="14.00">AdCreateComponent</text>
</g>
<!-- AdsModule -->
<g id="node5" class="node">
<title>AdsModule</title>
<polygon fill="#8dd3c7" stroke="black" points="361.1,-187 358.1,-191 337.1,-191 334.1,-187 278.9,-187 278.9,-151 361.1,-151 361.1,-187"/>
<text text-anchor="middle" x="320" y="-164.8" font-family="Times,serif" font-size="14.00">AdsModule</text>
</g>
<!-- AdCreateComponent&#45;&gt;AdsModule -->
<g id="edge1" class="edge">
<title>AdCreateComponent&#45;&gt;AdsModule</title>
<path fill="none" stroke="black" d="M544,-122.11C544,-141.34 544,-169 544,-169 544,-169 371.09,-169 371.09,-169"/>
<polygon fill="black" stroke="black" points="371.09,-165.5 361.09,-169 371.09,-172.5 371.09,-165.5"/>
</g>
<!-- AdDetailComponent -->
<g id="node2" class="node">
<title>AdDetailComponent</title>
<polygon fill="#8dd3c7" stroke="black" points="458.15,-122 455.15,-126 434.15,-126 431.15,-122 325.85,-122 325.85,-86 458.15,-86 458.15,-122"/>
<text text-anchor="middle" x="392" y="-99.8" font-family="Times,serif" font-size="14.00">AdDetailComponent</text>
</g>
<!-- AdDetailComponent&#45;&gt;AdsModule -->
<g id="edge2" class="edge">
<title>AdDetailComponent&#45;&gt;AdsModule</title>
<path fill="none" stroke="black" d="M343.36,-122.11C343.36,-122.11 343.36,-140.99 343.36,-140.99"/>
<polygon fill="black" stroke="black" points="339.86,-140.99 343.36,-150.99 346.86,-140.99 339.86,-140.99"/>
</g>
<!-- AdListComponent -->
<g id="node3" class="node">
<title>AdListComponent</title>
<polygon fill="#8dd3c7" stroke="black" points="308.22,-122 305.22,-126 284.22,-126 281.22,-122 187.78,-122 187.78,-86 308.22,-86 308.22,-122"/>
<text text-anchor="middle" x="248" y="-99.8" font-family="Times,serif" font-size="14.00">AdListComponent</text>
</g>
<!-- AdListComponent&#45;&gt;AdsModule -->
<g id="edge3" class="edge">
<title>AdListComponent&#45;&gt;AdsModule</title>
<path fill="none" stroke="black" d="M293.53,-122.11C293.53,-122.11 293.53,-140.99 293.53,-140.99"/>
<polygon fill="black" stroke="black" points="290.03,-140.99 293.53,-150.99 297.03,-140.99 290.03,-140.99"/>
</g>
<!-- SwipeViewComponent -->
<g id="node4" class="node">
<title>SwipeViewComponent</title>
<polygon fill="#8dd3c7" stroke="black" points="170.15,-122 167.15,-126 146.15,-126 143.15,-122 23.85,-122 23.85,-86 170.15,-86 170.15,-122"/>
<text text-anchor="middle" x="97" y="-99.8" font-family="Times,serif" font-size="14.00">SwipeViewComponent</text>
</g>
<!-- SwipeViewComponent&#45;&gt;AdsModule -->
<g id="edge4" class="edge">
<title>SwipeViewComponent&#45;&gt;AdsModule</title>
<path fill="none" stroke="black" d="M97,-122.11C97,-141.34 97,-169 97,-169 97,-169 268.84,-169 268.84,-169"/>
<polygon fill="black" stroke="black" points="268.84,-172.5 278.84,-169 268.84,-165.5 268.84,-172.5"/>
</g>
</g>
</svg>
