<?xml version="1.0" encoding="UTF-8" standalone="no"?>
<!DOCTYPE svg PUBLIC "-//W3C//DTD SVG 1.1//EN"
 "http://www.w3.org/Graphics/SVG/1.1/DTD/svg11.dtd">
<!-- Generated by graphviz version 2.47.0 (20210316.0004)
 -->
<!-- Title: dependencies Pages: 1 -->
<svg width="1277pt" height="284pt"
 viewBox="0.00 0.00 1277.00 284.00" xmlns="http://www.w3.org/2000/svg" xmlns:xlink="http://www.w3.org/1999/xlink">
<g id="graph0" class="graph" transform="scale(1 1) rotate(0) translate(4 280)">
<title>dependencies</title>
<polygon fill="white" stroke="transparent" points="-4,4 -4,-280 1273,-280 1273,4 -4,4"/>
<text text-anchor="start" x="613.51" y="-42.4" font-family="Times-12" font-weight="bold" font-size="14.00">Legend</text>
<polygon fill="#ffffb3" stroke="transparent" points="400.5,-10 400.5,-30 420.5,-30 420.5,-10 400.5,-10"/>
<text text-anchor="start" x="424.13" y="-15.4" font-family="Times-12" font-size="14.00"> &#160;Declarations</text>
<polygon fill="#8dd3c7" stroke="transparent" points="513.5,-10 513.5,-30 533.5,-30 533.5,-10 513.5,-10"/>
<text text-anchor="start" x="537.23" y="-15.4" font-family="Times-12" font-size="14.00"> &#160;Module</text>
<polygon fill="#80b1d3" stroke="transparent" points="599.5,-10 599.5,-30 619.5,-30 619.5,-10 599.5,-10"/>
<text text-anchor="start" x="623.28" y="-15.4" font-family="Times-12" font-size="14.00"> &#160;Bootstrap</text>
<polygon fill="#fdb462" stroke="transparent" points="696.5,-10 696.5,-30 716.5,-30 716.5,-10 696.5,-10"/>
<text text-anchor="start" x="720.17" y="-15.4" font-family="Times-12" font-size="14.00"> &#160;Providers</text>
<polygon fill="#fb8072" stroke="transparent" points="792.5,-10 792.5,-30 812.5,-30 812.5,-10 792.5,-10"/>
<text text-anchor="start" x="816.23" y="-15.4" font-family="Times-12" font-size="14.00"> &#160;Exports</text>
<g id="clust1" class="cluster">
<title>cluster_ReviewModule</title>
<polygon fill="none" stroke="black" stroke-dasharray="1,5" points="8,-70 8,-268 1261,-268 1261,-70 8,-70"/>
</g>
<g id="clust4" class="cluster">
<title>cluster_ReviewModule_exports</title>
<polygon fill="none" stroke="black" points="92,-208 92,-260 1178,-260 1178,-208 92,-208"/>
</g>
<g id="clust3" class="cluster">
<title>cluster_ReviewModule_imports</title>
<polygon fill="none" stroke="black" points="16,-78 16,-130 1253,-130 1253,-78 16,-78"/>
</g>
<!-- ReportDialogComponent -->
<g id="node1" class="node">
<title>ReportDialogComponent</title>
<polygon fill="#8dd3c7" stroke="black" points="1244.54,-122 1241.54,-126 1220.54,-126 1217.54,-122 1087.46,-122 1087.46,-86 1244.54,-86 1244.54,-122"/>
<text text-anchor="middle" x="1166" y="-99.8" font-family="Times,serif" font-size="14.00">ReportDialogComponent</text>
</g>
<!-- ReviewModule -->
<g id="node8" class="node">
<title>ReviewModule</title>
<polygon fill="#8dd3c7" stroke="black" points="672.31,-187 669.31,-191 648.31,-191 645.31,-187 569.69,-187 569.69,-151 672.31,-151 672.31,-187"/>
<text text-anchor="middle" x="621" y="-164.8" font-family="Times,serif" font-size="14.00">ReviewModule</text>
</g>
<!-- ReportDialogComponent&#45;&gt;ReviewModule -->
<g id="edge1" class="edge">
<title>ReportDialogComponent&#45;&gt;ReviewModule</title>
<path fill="none" stroke="black" d="M1128.38,-122.11C1128.38,-141.34 1128.38,-169 1128.38,-169 1128.38,-169 682.44,-169 682.44,-169"/>
<polygon fill="black" stroke="black" points="682.44,-165.5 672.44,-169 682.44,-172.5 682.44,-165.5"/>
</g>
<!-- ResponseDialogComponent -->
<g id="node2" class="node">
<title>ResponseDialogComponent</title>
<polygon fill="#8dd3c7" stroke="black" points="1069.59,-122 1066.59,-126 1045.59,-126 1042.59,-122 896.41,-122 896.41,-86 1069.59,-86 1069.59,-122"/>
<text text-anchor="middle" x="983" y="-99.8" font-family="Times,serif" font-size="14.00">ResponseDialogComponent</text>
</g>
<!-- ResponseDialogComponent&#45;&gt;ReviewModule -->
<g id="edge2" class="edge">
<title>ResponseDialogComponent&#45;&gt;ReviewModule</title>
<path fill="none" stroke="black" d="M943.38,-122.02C943.38,-139.37 943.38,-163 943.38,-163 943.38,-163 682.44,-163 682.44,-163"/>
<polygon fill="black" stroke="black" points="682.44,-159.5 672.44,-163 682.44,-166.5 682.44,-159.5"/>
</g>
<!-- ReviewDialogComponent -->
<g id="node3" class="node">
<title>ReviewDialogComponent</title>
<polygon fill="#8dd3c7" stroke="black" points="878.2,-122 875.2,-126 854.2,-126 851.2,-122 715.8,-122 715.8,-86 878.2,-86 878.2,-122"/>
<text text-anchor="middle" x="797" y="-99.8" font-family="Times,serif" font-size="14.00">ReviewDialogComponent</text>
</g>
<!-- ReviewDialogComponent&#45;&gt;ReviewModule -->
<g id="edge3" class="edge">
<title>ReviewDialogComponent&#45;&gt;ReviewModule</title>
<path fill="none" stroke="black" d="M755.88,-122.24C755.88,-137.57 755.88,-157 755.88,-157 755.88,-157 682.38,-157 682.38,-157"/>
<polygon fill="black" stroke="black" points="682.38,-153.5 672.38,-157 682.38,-160.5 682.38,-153.5"/>
</g>
<!-- ReviewFormComponent -->
<g id="node4" class="node">
<title>ReviewFormComponent</title>
<polygon fill="#8dd3c7" stroke="black" points="698.43,-122 695.43,-126 674.43,-126 671.43,-122 543.57,-122 543.57,-86 698.43,-86 698.43,-122"/>
<text text-anchor="middle" x="621" y="-99.8" font-family="Times,serif" font-size="14.00">ReviewFormComponent</text>
</g>
<!-- ReviewFormComponent&#45;&gt;ReviewModule -->
<g id="edge4" class="edge">
<title>ReviewFormComponent&#45;&gt;ReviewModule</title>
<path fill="none" stroke="black" d="M621,-122.11C621,-122.11 621,-140.99 621,-140.99"/>
<polygon fill="black" stroke="black" points="617.5,-140.99 621,-150.99 624.5,-140.99 617.5,-140.99"/>
</g>
<!-- ReviewListComponent -->
<g id="node5" class="node">
<title>ReviewListComponent</title>
<polygon fill="#8dd3c7" stroke="black" points="525.87,-122 522.87,-126 501.87,-126 498.87,-122 380.13,-122 380.13,-86 525.87,-86 525.87,-122"/>
<text text-anchor="middle" x="453" y="-99.8" font-family="Times,serif" font-size="14.00">ReviewListComponent</text>
</g>
<!-- ReviewListComponent&#45;&gt;ReviewModule -->
<g id="edge5" class="edge">
<title>ReviewListComponent&#45;&gt;ReviewModule</title>
<path fill="none" stroke="black" d="M494.12,-122.24C494.12,-137.57 494.12,-157 494.12,-157 494.12,-157 559.76,-157 559.76,-157"/>
<polygon fill="black" stroke="black" points="559.76,-160.5 569.76,-157 559.76,-153.5 559.76,-160.5"/>
</g>
<!-- ReviewSummaryComponent -->
<g id="node6" class="node">
<title>ReviewSummaryComponent</title>
<polygon fill="#8dd3c7" stroke="black" points="362.04,-122 359.04,-126 338.04,-126 335.04,-122 183.96,-122 183.96,-86 362.04,-86 362.04,-122"/>
<text text-anchor="middle" x="273" y="-99.8" font-family="Times,serif" font-size="14.00">ReviewSummaryComponent</text>
</g>
<!-- ReviewSummaryComponent&#45;&gt;ReviewModule -->
<g id="edge6" class="edge">
<title>ReviewSummaryComponent&#45;&gt;ReviewModule</title>
<path fill="none" stroke="black" d="M312.12,-122.02C312.12,-139.37 312.12,-163 312.12,-163 312.12,-163 559.65,-163 559.65,-163"/>
<polygon fill="black" stroke="black" points="559.65,-166.5 569.65,-163 559.65,-159.5 559.65,-166.5"/>
</g>
<!-- StarRatingComponent -->
<g id="node7" class="node">
<title>StarRatingComponent</title>
<polygon fill="#8dd3c7" stroke="black" points="165.71,-122 162.71,-126 141.71,-126 138.71,-122 24.29,-122 24.29,-86 165.71,-86 165.71,-122"/>
<text text-anchor="middle" x="95" y="-99.8" font-family="Times,serif" font-size="14.00">StarRatingComponent</text>
</g>
<!-- StarRatingComponent&#45;&gt;ReviewModule -->
<g id="edge7" class="edge">
<title>StarRatingComponent&#45;&gt;ReviewModule</title>
<path fill="none" stroke="black" d="M132.62,-122.11C132.62,-141.34 132.62,-169 132.62,-169 132.62,-169 559.66,-169 559.66,-169"/>
<polygon fill="black" stroke="black" points="559.66,-172.5 569.66,-169 559.66,-165.5 559.66,-172.5"/>
</g>
<!-- ReportDialogComponent  -->
<g id="node9" class="node">
<title>ReportDialogComponent </title>
<polygon fill="#fb8072" stroke="black" points="1169.54,-252 1008.46,-252 1008.46,-216 1169.54,-216 1169.54,-252"/>
<text text-anchor="middle" x="1089" y="-229.8" font-family="Times,serif" font-size="14.00">ReportDialogComponent </text>
</g>
<!-- ReviewModule&#45;&gt;ReportDialogComponent  -->
<g id="edge8" class="edge">
<title>ReviewModule&#45;&gt;ReportDialogComponent </title>
<path fill="none" stroke="black" stroke-dasharray="5,2" d="M672.26,-175C783.88,-175 1039.01,-175 1039.01,-175 1039.01,-175 1039.01,-205.98 1039.01,-205.98"/>
<polygon fill="black" stroke="black" points="1035.51,-205.98 1039.01,-215.98 1042.51,-205.98 1035.51,-205.98"/>
</g>
<!-- ResponseDialogComponent  -->
<g id="node10" class="node">
<title>ResponseDialogComponent </title>
<polygon fill="#fb8072" stroke="black" points="990.09,-252 813.91,-252 813.91,-216 990.09,-216 990.09,-252"/>
<text text-anchor="middle" x="902" y="-229.8" font-family="Times,serif" font-size="14.00">ResponseDialogComponent </text>
</g>
<!-- ReviewModule&#45;&gt;ResponseDialogComponent  -->
<g id="edge9" class="edge">
<title>ReviewModule&#45;&gt;ResponseDialogComponent </title>
<path fill="none" stroke="black" stroke-dasharray="5,2" d="M672.32,-181C738.69,-181 845.9,-181 845.9,-181 845.9,-181 845.9,-205.76 845.9,-205.76"/>
<polygon fill="black" stroke="black" points="842.4,-205.76 845.9,-215.76 849.4,-205.76 842.4,-205.76"/>
</g>
<!-- ReviewDialogComponent  -->
<g id="node11" class="node">
<title>ReviewDialogComponent </title>
<polygon fill="#fb8072" stroke="black" points="795.7,-252 630.3,-252 630.3,-216 795.7,-216 795.7,-252"/>
<text text-anchor="middle" x="713" y="-229.8" font-family="Times,serif" font-size="14.00">ReviewDialogComponent </text>
</g>
<!-- ReviewModule&#45;&gt;ReviewDialogComponent  -->
<g id="edge10" class="edge">
<title>ReviewModule&#45;&gt;ReviewDialogComponent </title>
<path fill="none" stroke="black" stroke-dasharray="5,2" d="M651.15,-187.11C651.15,-187.11 651.15,-205.99 651.15,-205.99"/>
<polygon fill="black" stroke="black" points="647.65,-205.99 651.15,-215.99 654.65,-205.99 647.65,-205.99"/>
</g>
<!-- ReviewListComponent  -->
<g id="node12" class="node">
<title>ReviewListComponent </title>
<polygon fill="#fb8072" stroke="black" points="611.87,-252 462.13,-252 462.13,-216 611.87,-216 611.87,-252"/>
<text text-anchor="middle" x="537" y="-229.8" font-family="Times,serif" font-size="14.00">ReviewListComponent </text>
</g>
<!-- ReviewModule&#45;&gt;ReviewListComponent  -->
<g id="edge11" class="edge">
<title>ReviewModule&#45;&gt;ReviewListComponent </title>
<path fill="none" stroke="black" stroke-dasharray="5,2" d="M590.77,-187.11C590.77,-187.11 590.77,-205.99 590.77,-205.99"/>
<polygon fill="black" stroke="black" points="587.27,-205.99 590.77,-215.99 594.27,-205.99 587.27,-205.99"/>
</g>
<!-- ReviewSummaryComponent  -->
<g id="node13" class="node">
<title>ReviewSummaryComponent </title>
<polygon fill="#fb8072" stroke="black" points="444.03,-252 261.97,-252 261.97,-216 444.03,-216 444.03,-252"/>
<text text-anchor="middle" x="353" y="-229.8" font-family="Times,serif" font-size="14.00">ReviewSummaryComponent </text>
</g>
<!-- ReviewModule&#45;&gt;ReviewSummaryComponent  -->
<g id="edge12" class="edge">
<title>ReviewModule&#45;&gt;ReviewSummaryComponent </title>
<path fill="none" stroke="black" stroke-dasharray="5,2" d="M569.62,-181C507.74,-181 412.04,-181 412.04,-181 412.04,-181 412.04,-205.76 412.04,-205.76"/>
<polygon fill="black" stroke="black" points="408.54,-205.76 412.04,-215.76 415.54,-205.76 408.54,-205.76"/>
</g>
<!-- StarRatingComponent  -->
<g id="node14" class="node">
<title>StarRatingComponent </title>
<polygon fill="#fb8072" stroke="black" points="244.21,-252 99.79,-252 99.79,-216 244.21,-216 244.21,-252"/>
<text text-anchor="middle" x="172" y="-229.8" font-family="Times,serif" font-size="14.00">StarRatingComponent </text>
</g>
<!-- ReviewModule&#45;&gt;StarRatingComponent  -->
<g id="edge13" class="edge">
<title>ReviewModule&#45;&gt;StarRatingComponent </title>
<path fill="none" stroke="black" stroke-dasharray="5,2" d="M569.46,-175C459.95,-175 214.04,-175 214.04,-175 214.04,-175 214.04,-205.98 214.04,-205.98"/>
<polygon fill="black" stroke="black" points="210.54,-205.98 214.04,-215.98 217.54,-205.98 210.54,-205.98"/>
</g>
</g>
</svg>
