<?xml version="1.0" encoding="UTF-8" standalone="no"?>
<svg width="1900" height="1200" viewBox="0 0 1900 1200" xmlns="http://www.w3.org/2000/svg" xmlns:xlink="http://www.w3.org/1999/xlink">
  <!-- Definitions for reusable elements -->
  <defs>
    <!-- Gradient for background -->
    <linearGradient id="backgroundGradient" x1="0%" y1="0%" x2="100%" y2="100%">
      <stop offset="0%" style="stop-color:#f8f9fc;stop-opacity:1" />
      <stop offset="100%" style="stop-color:#eef1f8;stop-opacity:1" />
    </linearGradient>
    
    <!-- Card shadow -->
    <filter id="cardShadow" x="-10%" y="-10%" width="120%" height="120%">
      <feDropShadow dx="0" dy="4" stdDeviation="6" flood-color="#000000" flood-opacity="0.1"/>
    </filter>
    
    <!-- Button styles -->
    <linearGradient id="primaryButtonGradient" x1="0%" y1="0%" x2="0%" y2="100%">
      <stop offset="0%" style="stop-color:#ff3366;stop-opacity:1" />
      <stop offset="100%" style="stop-color:#cc295a;stop-opacity:1" />
    </linearGradient>
    
    <!-- Avatar placeholder -->
    <circle id="avatarCircle" cx="20" cy="20" r="20" fill="#ccc"/>
    <clipPath id="avatarClip">
      <use xlink:href="#avatarCircle"/>
    </clipPath>
    
    <!-- Star rating -->
    <symbol id="star" viewBox="0 0 24 24">
      <path d="M12 17.27L18.18 21l-1.64-7.03L22 9.24l-7.19-.61L12 2 9.19 8.63 2 9.24l5.46 4.73L5.82 21z" fill="#ffab2e"/>
    </symbol>
  </defs>
  
  <!-- Main background -->
  <rect width="1900" height="1200" fill="url(#backgroundGradient)"/>
  
  <!-- Left sidebar -->
  <g id="leftSidebar">
    <rect x="0" y="0" width="280" height="1200" fill="#ffffff" filter="url(#cardShadow)" />
    
    <!-- Logo -->
    <g transform="translate(40, 40)">
      <rect x="0" y="0" width="40" height="40" rx="8" fill="#ff3366" />
      <text x="50" y="28" font-family="Poppins, sans-serif" font-size="24" font-weight="700" fill="#2d3748">DateNight.io</text>
    </g>
    
    <!-- Navigation items -->
    <g id="navItems">
      <!-- Netflix View -->
      <g transform="translate(40, 120)">
        <rect x="-20" y="-15" width="240" height="50" rx="8" fill="#ff3366" opacity="0.1" />
        <svg x="0" y="0" width="24" height="24" viewBox="0 0 24 24">
          <path d="M3 5h18v14H3V5zm9 12h8v-4H12v4zm0-6h8V7h-8v4zm-8 6h6V7H4v10z" fill="#ff3366"/>
        </svg>
        <text x="40" y="17" font-family="Inter, sans-serif" font-size="16" font-weight="500" fill="#2d3748">Netflix View</text>
      </g>
      
      <!-- Tinder View -->
      <g transform="translate(40, 180)">
        <svg x="0" y="0" width="24" height="24" viewBox="0 0 24 24">
          <path d="M12 21.35l-1.45-1.32C5.4 15.36 2 12.28 2 8.5 2 5.42 4.42 3 7.5 3c1.74 0 3.41.81 4.5 2.09C13.09 3.81 14.76 3 16.5 3 19.58 3 22 5.42 22 8.5c0 3.78-3.4 6.86-8.55 11.54L12 21.35z" fill="#6e7a94"/>
        </svg>
        <text x="40" y="17" font-family="Inter, sans-serif" font-size="16" font-weight="400" fill="#4a5568">Tinder View</text>
      </g>
      
      <!-- List View -->
      <g transform="translate(40, 240)">
        <svg x="0" y="0" width="24" height="24" viewBox="0 0 24 24">
          <path d="M3 13h2v-2H3v2zm0 4h2v-2H3v2zm0-8h2V7H3v2zm4 4h14v-2H7v2zm0 4h14v-2H7v2zM7 7v2h14V7H7z" fill="#6e7a94"/>
        </svg>
        <text x="40" y="17" font-family="Inter, sans-serif" font-size="16" font-weight="400" fill="#4a5568">List View</text>
      </g>
      
      <!-- Messages -->
      <g transform="translate(40, 300)">
        <svg x="0" y="0" width="24" height="24" viewBox="0 0 24 24">
          <path d="M20 2H4c-1.1 0-1.99.9-1.99 2L2 22l4-4h14c1.1 0 2-.9 2-2V4c0-1.1-.9-2-2-2zm-2 12H6v-2h12v2zm0-3H6V9h12v2zm0-3H6V6h12v2z" fill="#6e7a94"/>
        </svg>
        <text x="40" y="17" font-family="Inter, sans-serif" font-size="16" font-weight="400" fill="#4a5568">Messages</text>
      </g>
      
      <!-- Favorites -->
      <g transform="translate(40, 360)">
        <svg x="0" y="0" width="24" height="24" viewBox="0 0 24 24">
          <path d="M17 3H7c-1.1 0-1.99.9-1.99 2L5 21l7-3 7 3V5c0-1.1-.9-2-2-2z" fill="#6e7a94"/>
        </svg>
        <text x="40" y="17" font-family="Inter, sans-serif" font-size="16" font-weight="400" fill="#4a5568">Favorites</text>
      </g>
      
      <!-- Settings -->
      <g transform="translate(40, 420)">
        <svg x="0" y="0" width="24" height="24" viewBox="0 0 24 24">
          <path d="M19.14 12.94c.04-.3.06-.61.06-.94 0-.32-.02-.64-.07-.94l2.03-1.58c.18-.14.23-.41.12-.61l-1.92-3.32c-.12-.22-.37-.29-.59-.22l-2.39.96c-.5-.38-1.03-.7-1.62-.94l-.36-2.54c-.04-.24-.24-.41-.48-.41h-3.84c-.24 0-.43.17-.47.41l-.36 2.54c-.59.24-1.13.57-1.62.94l-2.39-.96c-.22-.08-.47 0-.59.22L2.74 8.87c-.12.21-.08.47.12.61l2.03 1.58c-.05.3-.09.63-.09.94s.02.64.07.94l-2.03 1.58c-.18.14-.23.41-.12.61l1.92 3.32c.12.22.37.29.59.22l2.39-.96c.5.38 1.03.7 1.62.94l.36 2.54c.05.24.24.41.48.41h3.84c.24 0 .44-.17.47-.41l.36-2.54c.59-.24 1.13-.56 1.62-.94l2.39.96c.22.08.47 0 .59-.22l1.92-3.32c.12-.22.07-.47-.12-.61l-2.01-1.58zM12 15.6c-1.98 0-3.6-1.62-3.6-3.6s1.62-3.6 3.6-3.6 3.6 1.62 3.6 3.6-1.62 3.6-3.6 3.6z" fill="#6e7a94"/>
        </svg>
        <text x="40" y="17" font-family="Inter, sans-serif" font-size="16" font-weight="400" fill="#4a5568">Settings</text>
      </g>
      
      <!-- Preferences Demo -->
      <g transform="translate(40, 480)">
        <svg x="0" y="0" width="24" height="24" viewBox="0 0 24 24">
          <path d="M3 17v2h6v-2H3zM3 5v2h10V5H3zm10 16v-2h8v-2h-8v-2h-2v6h2zM7 9v2H3v2h4v2h2V9H7zm14 4v-2H11v2h10zm-6-4h2V7h4V5h-4V3h-2v6z" fill="#6e7a94"/>
        </svg>
        <text x="40" y="17" font-family="Inter, sans-serif" font-size="16" font-weight="400" fill="#4a5568">Preferences</text>
      </g>
    </g>
    
    <!-- User profile -->
    <g transform="translate(40, 1100)">
      <circle cx="24" cy="24" r="24" fill="#eef1f8" />
      <text x="24" y="30" font-family="Inter, sans-serif" font-size="16" font-weight="600" fill="#4a5568" text-anchor="middle">OL</text>
      <text x="70" y="20" font-family="Inter, sans-serif" font-size="16" font-weight="500" fill="#2d3748">Øivind Lund</text>
      <text x="70" y="40" font-family="Inter, sans-serif" font-size="14" font-weight="400" fill="#6e7a94">Premium Member</text>
    </g>
  </g>
  
  <!-- Top header -->
  <g id="topHeader">
    <rect x="280" y="0" width="1620" height="80" fill="#ffffff" filter="url(#cardShadow)" />
    
    <!-- Search bar -->
    <g transform="translate(320, 25)">
      <rect x="0" y="0" width="400" height="40" rx="20" fill="#eef1f8" />
      <svg x="15" y="8" width="24" height="24" viewBox="0 0 24 24">
        <path d="M15.5 14h-.79l-.28-.27C15.41 12.59 16 11.11 16 9.5 16 5.91 13.09 3 9.5 3S3 5.91 3 9.5 5.91 16 9.5 16c1.61 0 3.09-.59 4.23-1.57l.27.28v.79l5 4.99L20.49 19l-4.99-5zm-6 0C7.01 14 5 11.99 5 9.5S7.01 5 9.5 5 14 7.01 14 9.5 11.99 14 9.5 14z" fill="#a0a8c0"/>
      </svg>
      <text x="50" y="25" font-family="Inter, sans-serif" font-size="14" fill="#a0a8c0">Search for dates, events, services...</text>
    </g>
    
    <!-- Filter button -->
    <g transform="translate(740, 25)">
      <rect x="0" y="0" width="100" height="40" rx="20" fill="#eef1f8" />
      <svg x="15" y="8" width="24" height="24" viewBox="0 0 24 24">
        <path d="M10 18h4v-2h-4v2zM3 6v2h18V6H3zm3 7h12v-2H6v2z" fill="#4a5568"/>
      </svg>
      <text x="50" y="25" font-family="Inter, sans-serif" font-size="14" font-weight="500" fill="#4a5568">Filter</text>
    </g>
    
    <!-- Notifications -->
    <g transform="translate(1700, 25)">
      <circle cx="20" cy="20" r="20" fill="#eef1f8" />
      <svg x="8" y="8" width="24" height="24" viewBox="0 0 24 24">
        <path d="M12 22c1.1 0 2-.9 2-2h-4c0 1.1.9 2 2 2zm6-6v-5c0-3.07-1.63-5.64-4.5-6.32V4c0-.83-.67-1.5-1.5-1.5s-1.5.67-1.5 1.5v.68C7.64 5.36 6 7.92 6 11v5l-2 2v1h16v-1l-2-2zm-2 1H8v-6c0-2.48 1.51-4.5 4-4.5s4 2.02 4 4.5v6z" fill="#4a5568"/>
      </svg>
      <circle cx="30" cy="10" r="5" fill="#ff3366" />
    </g>
    
    <!-- User menu -->
    <g transform="translate(1760, 25)">
      <circle cx="20" cy="20" r="20" fill="#eef1f8" />
      <text x="20" y="25" font-family="Inter, sans-serif" font-size="14" font-weight="600" fill="#4a5568" text-anchor="middle">OL</text>
    </g>
  </g>
  
  <!-- Main content area -->
  <g id="mainContent" transform="translate(320, 120)">
    <!-- Page title -->
    <text x="0" y="40" font-family="Poppins, sans-serif" font-size="30" font-weight="700" fill="#2d3748">Browse Experiences</text>
    
    <!-- Category tabs -->
    <g transform="translate(0, 80)">
      <rect x="0" y="0" width="1520" height="50" rx="8" fill="#ffffff" filter="url(#cardShadow)" />
      
      <!-- All tab (selected) -->
      <g transform="translate(20, 0)">
        <rect x="-10" y="5" width="100" height="40" rx="20" fill="#ff3366" />
        <text x="40" y="30" font-family="Inter, sans-serif" font-size="14" font-weight="600" fill="#ffffff" text-anchor="middle">All</text>
      </g>
      
      <!-- Massage tab -->
      <g transform="translate(130, 0)">
        <text x="40" y="30" font-family="Inter, sans-serif" font-size="14" font-weight="500" fill="#4a5568" text-anchor="middle">Massage</text>
      </g>
      
      <!-- Escort tab -->
      <g transform="translate(240, 0)">
        <text x="40" y="30" font-family="Inter, sans-serif" font-size="14" font-weight="500" fill="#4a5568" text-anchor="middle">Escort</text>
      </g>
      
      <!-- Dance tab -->
      <g transform="translate(350, 0)">
        <text x="40" y="30" font-family="Inter, sans-serif" font-size="14" font-weight="500" fill="#4a5568" text-anchor="middle">Dance</text>
      </g>
      
      <!-- Events tab -->
      <g transform="translate(460, 0)">
        <text x="40" y="30" font-family="Inter, sans-serif" font-size="14" font-weight="500" fill="#4a5568" text-anchor="middle">Events</text>
      </g>
      
      <!-- Photography tab -->
      <g transform="translate(570, 0)">
        <text x="40" y="30" font-family="Inter, sans-serif" font-size="14" font-weight="500" fill="#4a5568" text-anchor="middle">Photography</text>
      </g>
    </g>
    
    <!-- Featured section -->
    <g transform="translate(0, 160)">
      <text x="0" y="30" font-family="Poppins, sans-serif" font-size="24" font-weight="600" fill="#2d3748">Featured</text>
      
      <!-- Featured cards -->
      <g transform="translate(0, 50)">
        <!-- Card 1 -->
        <g transform="translate(0, 0)">
          <rect x="0" y="0" width="360" height="400" rx="8" fill="#ffffff" filter="url(#cardShadow)" />
          <rect x="0" y="0" width="360" height="240" rx="8 8 0 0" fill="#eef1f8" />
          <rect x="20" y="20" width="80" height="30" rx="15" fill="#ff3366" />
          <text x="60" y="40" font-family="Inter, sans-serif" font-size="14" font-weight="600" fill="#ffffff" text-anchor="middle">Featured</text>
          
          <text x="20" y="270" font-family="Poppins, sans-serif" font-size="18" font-weight="600" fill="#2d3748">Professional Massage</text>
          <text x="20" y="300" font-family="Inter, sans-serif" font-size="14" font-weight="400" fill="#6e7a94">Oslo, Norway</text>
          
          <g transform="translate(20, 320)">
            <use xlink:href="#star" x="0" y="0" width="20" height="20" />
            <use xlink:href="#star" x="22" y="0" width="20" height="20" />
            <use xlink:href="#star" x="44" y="0" width="20" height="20" />
            <use xlink:href="#star" x="66" y="0" width="20" height="20" />
            <use xlink:href="#star" x="88" y="0" width="20" height="20" opacity="0.3" />
            <text x="120" y="15" font-family="Inter, sans-serif" font-size="14" fill="#6e7a94">(24)</text>
          </g>
          
          <text x="20" y="350" font-family="Inter, sans-serif" font-size="16" font-weight="600" fill="#ff3366">1500 NOK</text>
          
          <g transform="translate(20, 370)">
            <rect x="0" y="0" width="100" height="30" rx="15" fill="#ff3366" />
            <text x="50" y="20" font-family="Inter, sans-serif" font-size="14" font-weight="600" fill="#ffffff" text-anchor="middle">Book Now</text>
          </g>
          
          <g transform="translate(130, 370)">
            <rect x="0" y="0" width="100" height="30" rx="15" fill="#ffffff" stroke="#6c63ff" stroke-width="1" />
            <text x="50" y="20" font-family="Inter, sans-serif" font-size="14" font-weight="600" fill="#6c63ff" text-anchor="middle">Save</text>
          </g>
        </g>
        
        <!-- Card 2 -->
        <g transform="translate(380, 0)">
          <rect x="0" y="0" width="360" height="400" rx="8" fill="#ffffff" filter="url(#cardShadow)" />
          <rect x="0" y="0" width="360" height="240" rx="8 8 0 0" fill="#eef1f8" />
          <rect x="20" y="20" width="80" height="30" rx="15" fill="#6c63ff" />
          <text x="60" y="40" font-family="Inter, sans-serif" font-size="14" font-weight="600" fill="#ffffff" text-anchor="middle">Premium</text>
          
          <text x="20" y="270" font-family="Poppins, sans-serif" font-size="18" font-weight="600" fill="#2d3748">Elegant Escort</text>
          <text x="20" y="300" font-family="Inter, sans-serif" font-size="14" font-weight="400" fill="#6e7a94">Stockholm, Sweden</text>
          
          <g transform="translate(20, 320)">
            <use xlink:href="#star" x="0" y="0" width="20" height="20" />
            <use xlink:href="#star" x="22" y="0" width="20" height="20" />
            <use xlink:href="#star" x="44" y="0" width="20" height="20" />
            <use xlink:href="#star" x="66" y="0" width="20" height="20" />
            <use xlink:href="#star" x="88" y="0" width="20" height="20" opacity="0.5" />
            <text x="120" y="15" font-family="Inter, sans-serif" font-size="14" fill="#6e7a94">(18)</text>
          </g>
          
          <text x="20" y="350" font-family="Inter, sans-serif" font-size="16" font-weight="600" fill="#ff3366">2500 SEK</text>
          
          <g transform="translate(20, 370)">
            <rect x="0" y="0" width="100" height="30" rx="15" fill="#ff3366" />
            <text x="50" y="20" font-family="Inter, sans-serif" font-size="14" font-weight="600" fill="#ffffff" text-anchor="middle">Book Now</text>
          </g>
          
          <g transform="translate(130, 370)">
            <rect x="0" y="0" width="100" height="30" rx="15" fill="#ffffff" stroke="#6c63ff" stroke-width="1" />
            <text x="50" y="20" font-family="Inter, sans-serif" font-size="14" font-weight="600" fill="#6c63ff" text-anchor="middle">Save</text>
          </g>
        </g>
        
        <!-- Card 3 -->
        <g transform="translate(760, 0)">
          <rect x="0" y="0" width="360" height="400" rx="8" fill="#ffffff" filter="url(#cardShadow)" />
          <rect x="0" y="0" width="360" height="240" rx="8 8 0 0" fill="#eef1f8" />
          <rect x="20" y="20" width="80" height="30" rx="15" fill="#ff3366" />
          <text x="60" y="40" font-family="Inter, sans-serif" font-size="14" font-weight="600" fill="#ffffff" text-anchor="middle">Featured</text>
          
          <text x="20" y="270" font-family="Poppins, sans-serif" font-size="18" font-weight="600" fill="#2d3748">Exotic Dance</text>
          <text x="20" y="300" font-family="Inter, sans-serif" font-size="14" font-weight="400" fill="#6e7a94">Copenhagen, Denmark</text>
          
          <g transform="translate(20, 320)">
            <use xlink:href="#star" x="0" y="0" width="20" height="20" />
            <use xlink:href="#star" x="22" y="0" width="20" height="20" />
            <use xlink:href="#star" x="44" y="0" width="20" height="20" />
            <use xlink:href="#star" x="66" y="0" width="20" height="20" />
            <use xlink:href="#star" x="88" y="0" width="20" height="20" />
            <text x="120" y="15" font-family="Inter, sans-serif" font-size="14" fill="#6e7a94">(32)</text>
          </g>
          
          <text x="20" y="350" font-family="Inter, sans-serif" font-size="16" font-weight="600" fill="#ff3366">2000 DKK</text>
          
          <g transform="translate(20, 370)">
            <rect x="0" y="0" width="100" height="30" rx="15" fill="#ff3366" />
            <text x="50" y="20" font-family="Inter, sans-serif" font-size="14" font-weight="600" fill="#ffffff" text-anchor="middle">Book Now</text>
          </g>
          
          <g transform="translate(130, 370)">
            <rect x="0" y="0" width="100" height="30" rx="15" fill="#ffffff" stroke="#6c63ff" stroke-width="1" />
            <text x="50" y="20" font-family="Inter, sans-serif" font-size="14" font-weight="600" fill="#6c63ff" text-anchor="middle">Save</text>
          </g>
        </g>
        
        <!-- Card 4 -->
        <g transform="translate(1140, 0)">
          <rect x="0" y="0" width="360" height="400" rx="8" fill="#ffffff" filter="url(#cardShadow)" />
          <rect x="0" y="0" width="360" height="240" rx="8 8 0 0" fill="#eef1f8" />
          <rect x="20" y="20" width="80" height="30" rx="15" fill="#6c63ff" />
          <text x="60" y="40" font-family="Inter, sans-serif" font-size="14" font-weight="600" fill="#ffffff" text-anchor="middle">Premium</text>
          
          <text x="20" y="270" font-family="Poppins, sans-serif" font-size="18" font-weight="600" fill="#2d3748">Event Planner</text>
          <text x="20" y="300" font-family="Inter, sans-serif" font-size="14" font-weight="400" fill="#6e7a94">Miami, FL</text>
          
          <g transform="translate(20, 320)">
            <use xlink:href="#star" x="0" y="0" width="20" height="20" />
            <use xlink:href="#star" x="22" y="0" width="20" height="20" />
            <use xlink:href="#star" x="44" y="0" width="20" height="20" />
            <use xlink:href="#star" x="66" y="0" width="20" height="20" />
            <use xlink:href="#star" x="88" y="0" width="20" height="20" opacity="0.7" />
            <text x="120" y="15" font-family="Inter, sans-serif" font-size="14" fill="#6e7a94">(27)</text>
          </g>
          
          <text x="20" y="350" font-family="Inter, sans-serif" font-size="16" font-weight="600" fill="#ff3366">$300</text>
          
          <g transform="translate(20, 370)">
            <rect x="0" y="0" width="100" height="30" rx="15" fill="#ff3366" />
            <text x="50" y="20" font-family="Inter, sans-serif" font-size="14" font-weight="600" fill="#ffffff" text-anchor="middle">Book Now</text>
          </g>
          
          <g transform="translate(130, 370)">
            <rect x="0" y="0" width="100" height="30" rx="15" fill="#ffffff" stroke="#6c63ff" stroke-width="1" />
            <text x="50" y="20" font-family="Inter, sans-serif" font-size="14" font-weight="600" fill="#6c63ff" text-anchor="middle">Save</text>
          </g>
        </g>
      </g>
    </g>
    
    <!-- Popular section -->
    <g transform="translate(0, 600)">
      <text x="0" y="30" font-family="Poppins, sans-serif" font-size="24" font-weight="600" fill="#2d3748">Popular Near You</text>
      
      <!-- Popular cards -->
      <g transform="translate(0, 50)">
        <!-- Card 1 -->
        <g transform="translate(0, 0)">
          <rect x="0" y="0" width="360" height="400" rx="8" fill="#ffffff" filter="url(#cardShadow)" />
          <rect x="0" y="0" width="360" height="240" rx="8 8 0 0" fill="#eef1f8" />
          
          <text x="20" y="270" font-family="Poppins, sans-serif" font-size="18" font-weight="600" fill="#2d3748">Photographer</text>
          <text x="20" y="300" font-family="Inter, sans-serif" font-size="14" font-weight="400" fill="#6e7a94">New York, NY</text>
          
          <g transform="translate(20, 320)">
            <use xlink:href="#star" x="0" y="0" width="20" height="20" />
            <use xlink:href="#star" x="22" y="0" width="20" height="20" />
            <use xlink:href="#star" x="44" y="0" width="20" height="20" />
            <use xlink:href="#star" x="66" y="0" width="20" height="20" />
            <use xlink:href="#star" x="88" y="0" width="20" height="20" opacity="0.4" />
            <text x="120" y="15" font-family="Inter, sans-serif" font-size="14" fill="#6e7a94">(21)</text>
          </g>
          
          <text x="20" y="350" font-family="Inter, sans-serif" font-size="16" font-weight="600" fill="#ff3366">$250</text>
          
          <g transform="translate(20, 370)">
            <rect x="0" y="0" width="100" height="30" rx="15" fill="#ff3366" />
            <text x="50" y="20" font-family="Inter, sans-serif" font-size="14" font-weight="600" fill="#ffffff" text-anchor="middle">Book Now</text>
          </g>
          
          <g transform="translate(130, 370)">
            <rect x="0" y="0" width="100" height="30" rx="15" fill="#ffffff" stroke="#6c63ff" stroke-width="1" />
            <text x="50" y="20" font-family="Inter, sans-serif" font-size="14" font-weight="600" fill="#6c63ff" text-anchor="middle">Save</text>
          </g>
        </g>
        
        <!-- Card 2 -->
        <g transform="translate(380, 0)">
          <rect x="0" y="0" width="360" height="400" rx="8" fill="#ffffff" filter="url(#cardShadow)" />
          <rect x="0" y="0" width="360" height="240" rx="8 8 0 0" fill="#eef1f8" />
          
          <text x="20" y="270" font-family="Poppins, sans-serif" font-size="18" font-weight="600" fill="#2d3748">Makeup Artist</text>
          <text x="20" y="300" font-family="Inter, sans-serif" font-size="14" font-weight="400" fill="#6e7a94">Los Angeles, CA</text>
          
          <g transform="translate(20, 320)">
            <use xlink:href="#star" x="0" y="0" width="20" height="20" />
            <use xlink:href="#star" x="22" y="0" width="20" height="20" />
            <use xlink:href="#star" x="44" y="0" width="20" height="20" />
            <use xlink:href="#star" x="66" y="0" width="20" height="20" />
            <use xlink:href="#star" x="88" y="0" width="20" height="20" opacity="0.3" />
            <text x="120" y="15" font-family="Inter, sans-serif" font-size="14" fill="#6e7a94">(19)</text>
          </g>
          
          <text x="20" y="350" font-family="Inter, sans-serif" font-size="16" font-weight="600" fill="#ff3366">$200</text>
          
          <g transform="translate(20, 370)">
            <rect x="0" y="0" width="100" height="30" rx="15" fill="#ff3366" />
            <text x="50" y="20" font-family="Inter, sans-serif" font-size="14" font-weight="600" fill="#ffffff" text-anchor="middle">Book Now</text>
          </g>
          
          <g transform="translate(130, 370)">
            <rect x="0" y="0" width="100" height="30" rx="15" fill="#ffffff" stroke="#6c63ff" stroke-width="1" />
            <text x="50" y="20" font-family="Inter, sans-serif" font-size="14" font-weight="600" fill="#6c63ff" text-anchor="middle">Save</text>
          </g>
        </g>
        
        <!-- Card 3 -->
        <g transform="translate(760, 0)">
          <rect x="0" y="0" width="360" height="400" rx="8" fill="#ffffff" filter="url(#cardShadow)" />
          <rect x="0" y="0" width="360" height="240" rx="8 8 0 0" fill="#eef1f8" />
          
          <text x="20" y="270" font-family="Poppins, sans-serif" font-size="18" font-weight="600" fill="#2d3748">Personal Chef</text>
          <text x="20" y="300" font-family="Inter, sans-serif" font-size="14" font-weight="400" fill="#6e7a94">Chicago, IL</text>
          
          <g transform="translate(20, 320)">
            <use xlink:href="#star" x="0" y="0" width="20" height="20" />
            <use xlink:href="#star" x="22" y="0" width="20" height="20" />
            <use xlink:href="#star" x="44" y="0" width="20" height="20" />
            <use xlink:href="#star" x="66" y="0" width="20" height="20" />
            <use xlink:href="#star" x="88" y="0" width="20" height="20" opacity="0.6" />
            <text x="120" y="15" font-family="Inter, sans-serif" font-size="14" fill="#6e7a94">(15)</text>
          </g>
          
          <text x="20" y="350" font-family="Inter, sans-serif" font-size="16" font-weight="600" fill="#ff3366">$350</text>
          
          <g transform="translate(20, 370)">
            <rect x="0" y="0" width="100" height="30" rx="15" fill="#ff3366" />
            <text x="50" y="20" font-family="Inter, sans-serif" font-size="14" font-weight="600" fill="#ffffff" text-anchor="middle">Book Now</text>
          </g>
          
          <g transform="translate(130, 370)">
            <rect x="0" y="0" width="100" height="30" rx="15" fill="#ffffff" stroke="#6c63ff" stroke-width="1" />
            <text x="50" y="20" font-family="Inter, sans-serif" font-size="14" font-weight="600" fill="#6c63ff" text-anchor="middle">Save</text>
          </g>
        </g>
        
        <!-- Card 4 -->
        <g transform="translate(1140, 0)">
          <rect x="0" y="0" width="360" height="400" rx="8" fill="#ffffff" filter="url(#cardShadow)" />
          <rect x="0" y="0" width="360" height="240" rx="8 8 0 0" fill="#eef1f8" />
          
          <text x="20" y="270" font-family="Poppins, sans-serif" font-size="18" font-weight="600" fill="#2d3748">Yoga Instructor</text>
          <text x="20" y="300" font-family="Inter, sans-serif" font-size="14" font-weight="400" fill="#6e7a94">San Francisco, CA</text>
          
          <g transform="translate(20, 320)">
            <use xlink:href="#star" x="0" y="0" width="20" height="20" />
            <use xlink:href="#star" x="22" y="0" width="20" height="20" />
            <use xlink:href="#star" x="44" y="0" width="20" height="20" />
            <use xlink:href="#star" x="66" y="0" width="20" height="20" />
            <use xlink:href="#star" x="88" y="0" width="20" height="20" opacity="0.8" />
            <text x="120" y="15" font-family="Inter, sans-serif" font-size="14" fill="#6e7a94">(29)</text>
          </g>
          
          <text x="20" y="350" font-family="Inter, sans-serif" font-size="16" font-weight="600" fill="#ff3366">$180</text>
          
          <g transform="translate(20, 370)">
            <rect x="0" y="0" width="100" height="30" rx="15" fill="#ff3366" />
            <text x="50" y="20" font-family="Inter, sans-serif" font-size="14" font-weight="600" fill="#ffffff" text-anchor="middle">Book Now</text>
          </g>
          
          <g transform="translate(130, 370)">
            <rect x="0" y="0" width="100" height="30" rx="15" fill="#ffffff" stroke="#6c63ff" stroke-width="1" />
            <text x="50" y="20" font-family="Inter, sans-serif" font-size="14" font-weight="600" fill="#6c63ff" text-anchor="middle">Save</text>
          </g>
        </g>
      </g>
    </g>
  </g>
</svg>