<?xml version="1.0" encoding="UTF-8" standalone="no"?>
<svg width="390" height="844" viewBox="0 0 390 844" xmlns="http://www.w3.org/2000/svg" xmlns:xlink="http://www.w3.org/1999/xlink">
  <!-- Definitions for reusable elements -->
  <defs>
    <!-- Gradient for background -->
    <linearGradient id="backgroundGradient" x1="0%" y1="0%" x2="100%" y2="100%">
      <stop offset="0%" style="stop-color:#f8f9fc;stop-opacity:1" />
      <stop offset="100%" style="stop-color:#eef1f8;stop-opacity:1" />
    </linearGradient>
    
    <!-- Card shadow -->
    <filter id="cardShadow" x="-10%" y="-10%" width="120%" height="120%">
      <feDropShadow dx="0" dy="4" stdDeviation="6" flood-color="#000000" flood-opacity="0.1"/>
    </filter>
    
    <!-- Button styles -->
    <linearGradient id="primaryButtonGradient" x1="0%" y1="0%" x2="0%" y2="100%">
      <stop offset="0%" style="stop-color:#ff3366;stop-opacity:1" />
      <stop offset="100%" style="stop-color:#cc295a;stop-opacity:1" />
    </linearGradient>
    
    <!-- Avatar placeholder -->
    <circle id="avatarCircle" cx="20" cy="20" r="20" fill="#ccc"/>
    <clipPath id="avatarClip">
      <use xlink:href="#avatarCircle"/>
    </clipPath>
    
    <!-- Star rating -->
    <symbol id="star" viewBox="0 0 24 24">
      <path d="M12 17.27L18.18 21l-1.64-7.03L22 9.24l-7.19-.61L12 2 9.19 8.63 2 9.24l5.46 4.73L5.82 21z" fill="#ffab2e"/>
    </symbol>
    
    <!-- iPhone status bar -->
    <symbol id="iphoneStatusBar" viewBox="0 0 390 44">
      <rect width="390" height="44" fill="none"/>
      <!-- Time -->
      <text x="32" y="26" font-family="Inter, sans-serif" font-size="16" font-weight="600" fill="#2d3748">9:41</text>
      <!-- Battery -->
      <rect x="335" y="17" width="25" height="12" rx="3" fill="none" stroke="#2d3748" stroke-width="1"/>
      <rect x="362" y="20" width="2" height="6" rx="1" fill="#2d3748"/>
      <rect x="337" y="19" width="21" height="8" rx="2" fill="#2d3748"/>
      <!-- Wifi -->
      <path d="M298 18l2 2c-2.8 2.8-7.2 2.8-10 0l2-2c1.7 1.7 4.3 1.7 6 0z" fill="#2d3748"/>
      <path d="M294 14l2 2c-4.2 4.2-10.8 4.2-15 0l2-2c3 3 8 3 11 0z" fill="#2d3748"/>
      <path d="M296 26a2 2 0 100-4 2 2 0 000 4z" fill="#2d3748"/>
      <!-- Signal -->
      <rect x="268" y="18" width="3" height="9" rx="1" fill="#2d3748"/>
      <rect x="273" y="16" width="3" height="11" rx="1" fill="#2d3748"/>
      <rect x="278" y="14" width="3" height="13" rx="1" fill="#2d3748"/>
      <rect x="283" y="10" width="3" height="17" rx="1" fill="#2d3748"/>
    </symbol>
    
    <!-- iPhone home indicator -->
    <symbol id="iphoneHomeIndicator" viewBox="0 0 390 34">
      <rect width="390" height="34" fill="none"/>
      <rect x="120" y="22" width="150" height="5" rx="2.5" fill="#2d3748"/>
    </symbol>
    
    <!-- Bottom navigation -->
    <symbol id="bottomNav" viewBox="0 0 390 80">
      <rect width="390" height="80" fill="#ffffff" filter="url(#cardShadow)"/>
      
      <!-- Home -->
      <g transform="translate(40, 25)">
        <path d="M3 13h10v8h6v-8h10V3H3v10z" fill="#6e7a94"/>
        <text x="15" y="45" font-family="Inter, sans-serif" font-size="12" font-weight="500" fill="#6e7a94" text-anchor="middle">Home</text>
      </g>
      
      <!-- Search -->
      <g transform="translate(120, 25)">
        <path d="M15.5 14h-.79l-.28-.27C15.41 12.59 16 11.11 16 9.5 16 5.91 13.09 3 9.5 3S3 5.91 3 9.5 5.91 16 9.5 16c1.61 0 3.09-.59 4.23-1.57l.27.28v.79l5 4.99L20.49 19l-4.99-5z" fill="#6e7a94"/>
        <text x="15" y="45" font-family="Inter, sans-serif" font-size="12" font-weight="500" fill="#6e7a94" text-anchor="middle">Search</text>
      </g>
      
      <!-- Favorites -->
      <g transform="translate(200, 25)">
        <path d="M12 21.35l-1.45-1.32C5.4 15.36 2 12.28 2 8.5 2 5.42 4.42 3 7.5 3c1.74 0 3.41.81 4.5 2.09C13.09 3.81 14.76 3 16.5 3 19.58 3 22 5.42 22 8.5c0 3.78-3.4 6.86-8.55 11.54L12 21.35z" fill="#ff3366"/>
        <text x="15" y="45" font-family="Inter, sans-serif" font-size="12" font-weight="500" fill="#2d3748" text-anchor="middle">Tinder</text>
      </g>
      
      <!-- Profile -->
      <g transform="translate(280, 25)">
        <path d="M12 12c2.21 0 4-1.79 4-4s-1.79-4-4-4-4 1.79-4 4 1.79 4 4 4zm0 2c-2.67 0-8 1.34-8 4v2h16v-2c0-2.66-5.33-4-8-4z" fill="#6e7a94"/>
        <text x="15" y="45" font-family="Inter, sans-serif" font-size="12" font-weight="500" fill="#6e7a94" text-anchor="middle">Profile</text>
      </g>
    </symbol>
    
    <!-- Tinder action buttons -->
    <symbol id="tinderDislike" viewBox="0 0 60 60">
      <circle cx="30" cy="30" r="30" fill="#ffffff" stroke="#eef1f8" stroke-width="1"/>
      <path d="M40 20L20 40M20 20L40 40" stroke="#ff4757" stroke-width="4" stroke-linecap="round"/>
    </symbol>
    
    <symbol id="tinderLike" viewBox="0 0 60 60">
      <circle cx="30" cy="30" r="30" fill="#ffffff" stroke="#eef1f8" stroke-width="1"/>
      <path d="M30 45l-1.45-1.32C23.4 38.36 20 35.28 20 31.5 20 28.42 22.42 26 25.5 26c1.74 0 3.41.81 4.5 2.09C31.09 26.81 32.76 26 34.5 26 37.58 26 40 28.42 40 31.5c0 3.78-3.4 6.86-8.55 11.54L30 45z" fill="#ff3366"/>
    </symbol>
    
    <symbol id="tinderSuperLike" viewBox="0 0 60 60">
      <circle cx="30" cy="30" r="30" fill="#ffffff" stroke="#eef1f8" stroke-width="1"/>
      <path d="M30 20l2.5 7.5H40l-6 5 2.5 7.5-6.5-5-6.5 5 2.5-7.5-6-5h7.5z" fill="#54a0ff"/>
    </symbol>
  </defs>
  
  <!-- Main background -->
  <rect width="390" height="844" fill="url(#backgroundGradient)"/>
  
  <!-- iPhone status bar -->
  <use xlink:href="#iphoneStatusBar" x="0" y="0" width="390" height="44" />
  
  <!-- Header -->
  <g id="header">
    <rect x="0" y="44" width="390" height="60" fill="#ffffff" filter="url(#cardShadow)" />
    
    <!-- View type selector -->
    <g transform="translate(20, 74)">
      <rect x="0" y="-20" width="240" height="40" rx="20" fill="#eef1f8" />
      
      <!-- Netflix option -->
      <rect x="0" y="-20" width="80" height="40" rx="0" fill="#eef1f8" />
      <text x="40" y="0" font-family="Inter, sans-serif" font-size="14" font-weight="500" fill="#6e7a94" text-anchor="middle">Netflix</text>
      
      <!-- Tinder option (selected) -->
      <rect x="80" y="-20" width="80" height="40" rx="0" fill="#ff3366" />
      <text x="120" y="0" font-family="Inter, sans-serif" font-size="14" font-weight="600" fill="#ffffff" text-anchor="middle">Tinder</text>
      
      <!-- List option -->
      <rect x="160" y="-20" width="80" height="40" rx="0" fill="#eef1f8" />
      <text x="200" y="0" font-family="Inter, sans-serif" font-size="14" font-weight="500" fill="#6e7a94" text-anchor="middle">List</text>
    </g>
    
    <!-- User profile -->
    <g transform="translate(350, 74)">
      <circle cx="0" cy="0" r="15" fill="#eef1f8" />
      <text x="0" y="5" font-family="Inter, sans-serif" font-size="12" font-weight="600" fill="#4a5568" text-anchor="middle">OL</text>
    </g>
  </g>
  
  <!-- Match counter -->
  <g transform="translate(195, 130)">
    <rect x="-80" y="0" width="160" height="40" rx="20" fill="#ffffff" filter="url(#cardShadow)" />
    <text x="0" y="25" font-family="Inter, sans-serif" font-size="14" font-weight="500" fill="#4a5568" text-anchor="middle">12 Matches Available</text>
  </g>
  
  <!-- Tinder card stack -->
  <g transform="translate(195, 400)" filter="url(#cardShadow)">
    <!-- Card 3 (bottom of stack) -->
    <g transform="translate(-150, -250) rotate(-5)">
      <rect x="0" y="0" width="300" height="500" rx="12" fill="#ffffff" stroke="#eef1f8" stroke-width="1" />
      <rect x="0" y="0" width="300" height="350" rx="12 12 0 0" fill="#eef1f8" />
      <text x="150" y="175" font-family="Poppins, sans-serif" font-size="18" font-weight="700" fill="#a0a8c0" text-anchor="middle">Exotic Dance</text>
    </g>
    
    <!-- Card 2 (middle of stack) -->
    <g transform="translate(-150, -250) rotate(3)">
      <rect x="0" y="0" width="300" height="500" rx="12" fill="#ffffff" stroke="#eef1f8" stroke-width="1" />
      <rect x="0" y="0" width="300" height="350" rx="12 12 0 0" fill="#eef1f8" />
      <text x="150" y="175" font-family="Poppins, sans-serif" font-size="18" font-weight="700" fill="#a0a8c0" text-anchor="middle">Elegant Escort</text>
    </g>
    
    <!-- Card 1 (top of stack) -->
    <g transform="translate(-150, -250)">
      <rect x="0" y="0" width="300" height="500" rx="12" fill="#ffffff" stroke="#eef1f8" stroke-width="1" />
      <rect x="0" y="0" width="300" height="350" rx="12 12 0 0" fill="#eef1f8" />
      <text x="150" y="175" font-family="Poppins, sans-serif" font-size="18" font-weight="700" fill="#a0a8c0" text-anchor="middle">Massage Therapy</text>
      
      <!-- Badges -->
      <rect x="20" y="20" width="80" height="30" rx="15" fill="#ff3366" />
      <text x="60" y="40" font-family="Inter, sans-serif" font-size="12" font-weight="600" fill="#ffffff" text-anchor="middle">Featured</text>
      
      <!-- Card content -->
      <text x="20" y="380" font-family="Poppins, sans-serif" font-size="18" font-weight="700" fill="#2d3748">Professional Massage</text>
      <text x="20" y="410" font-family="Inter, sans-serif" font-size="14" font-weight="400" fill="#6e7a94">Oslo, Norway</text>
      
      <g transform="translate(20, 430)">
        <use xlink:href="#star" x="0" y="0" width="16" height="16" />
        <use xlink:href="#star" x="20" y="0" width="16" height="16" />
        <use xlink:href="#star" x="40" y="0" width="16" height="16" />
        <use xlink:href="#star" x="60" y="0" width="16" height="16" />
        <use xlink:href="#star" x="80" y="0" width="16" height="16" opacity="0.3" />
        <text x="105" y="12" font-family="Inter, sans-serif" font-size="12" fill="#6e7a94">(24)</text>
      </g>
      
      <text x="20" y="460" font-family="Inter, sans-serif" font-size="14" fill="#4a5568">Relaxing and rejuvenating massage therapy by a certified professional.</text>
      
      <!-- Price -->
      <text x="20" y="490" font-family="Inter, sans-serif" font-size="16" font-weight="600" fill="#ff3366">1500 NOK</text>
    </g>
  </g>
  
  <!-- Tinder action buttons -->
  <g transform="translate(195, 680)">
    <g transform="translate(-100, 0)">
      <use xlink:href="#tinderDislike" x="-30" y="-30" width="60" height="60" />
    </g>
    
    <g transform="translate(0, 0)">
      <use xlink:href="#tinderSuperLike" x="-30" y="-30" width="60" height="60" />
    </g>
    
    <g transform="translate(100, 0)">
      <use xlink:href="#tinderLike" x="-30" y="-30" width="60" height="60" />
    </g>
  </g>
  
  <!-- Bottom navigation -->
  <use xlink:href="#bottomNav" x="0" y="764" width="390" height="80" />
  
  <!-- iPhone home indicator -->
  <use xlink:href="#iphoneHomeIndicator" x="0" y="810" width="390" height="34" />
</svg>