<?xml version="1.0" encoding="UTF-8" standalone="no"?>
<!DOCTYPE svg PUBLIC "-//W3C//DTD SVG 1.1//EN"
 "http://www.w3.org/Graphics/SVG/1.1/DTD/svg11.dtd">
<!-- Generated by graphviz version 2.47.0 (20210316.0004)
 -->
<!-- Title: dependencies Pages: 1 -->
<svg width="838pt" height="211pt"
 viewBox="0.00 0.00 838.00 211.00" xmlns="http://www.w3.org/2000/svg" xmlns:xlink="http://www.w3.org/1999/xlink">
<g id="graph0" class="graph" transform="scale(1 1) rotate(0) translate(4 207)">
<title>dependencies</title>
<polygon fill="white" stroke="transparent" points="-4,4 -4,-207 834,-207 834,4 -4,4"/>
<text text-anchor="start" x="394.01" y="-42.4" font-family="Times-12" font-weight="bold" font-size="14.00">Legend</text>
<polygon fill="#ffffb3" stroke="transparent" points="181,-10 181,-30 201,-30 201,-10 181,-10"/>
<text text-anchor="start" x="204.63" y="-15.4" font-family="Times-12" font-size="14.00"> &#160;Declarations</text>
<polygon fill="#8dd3c7" stroke="transparent" points="294,-10 294,-30 314,-30 314,-10 294,-10"/>
<text text-anchor="start" x="317.73" y="-15.4" font-family="Times-12" font-size="14.00"> &#160;Module</text>
<polygon fill="#80b1d3" stroke="transparent" points="380,-10 380,-30 400,-30 400,-10 380,-10"/>
<text text-anchor="start" x="403.78" y="-15.4" font-family="Times-12" font-size="14.00"> &#160;Bootstrap</text>
<polygon fill="#fdb462" stroke="transparent" points="477,-10 477,-30 497,-30 497,-10 477,-10"/>
<text text-anchor="start" x="500.67" y="-15.4" font-family="Times-12" font-size="14.00"> &#160;Providers</text>
<polygon fill="#fb8072" stroke="transparent" points="573,-10 573,-30 593,-30 593,-10 573,-10"/>
<text text-anchor="start" x="596.73" y="-15.4" font-family="Times-12" font-size="14.00"> &#160;Exports</text>
<g id="clust1" class="cluster">
<title>cluster_AdminModule</title>
<polygon fill="none" stroke="black" stroke-dasharray="1,5" points="8,-70 8,-195 822,-195 822,-70 8,-70"/>
</g>
<g id="clust3" class="cluster">
<title>cluster_AdminModule_imports</title>
<polygon fill="none" stroke="black" points="16,-78 16,-130 814,-130 814,-78 16,-78"/>
</g>
<!-- AdminRoutingModule -->
<g id="node1" class="node">
<title>AdminRoutingModule</title>
<polygon fill="#8dd3c7" stroke="black" points="805.56,-122 802.56,-126 781.56,-126 778.56,-122 662.44,-122 662.44,-86 805.56,-86 805.56,-122"/>
<text text-anchor="middle" x="734" y="-99.8" font-family="Times,serif" font-size="14.00">AdminRoutingModule</text>
</g>
<!-- AdminModule -->
<g id="node5" class="node">
<title>AdminModule</title>
<polygon fill="#8dd3c7" stroke="black" points="502.44,-187 499.44,-191 478.44,-191 475.44,-187 403.56,-187 403.56,-151 502.44,-151 502.44,-187"/>
<text text-anchor="middle" x="453" y="-164.8" font-family="Times,serif" font-size="14.00">AdminModule</text>
</g>
<!-- AdminRoutingModule&#45;&gt;AdminModule -->
<g id="edge1" class="edge">
<title>AdminRoutingModule&#45;&gt;AdminModule</title>
<path fill="none" stroke="black" d="M734,-122.11C734,-141.34 734,-169 734,-169 734,-169 512.27,-169 512.27,-169"/>
<polygon fill="black" stroke="black" points="512.27,-165.5 502.27,-169 512.27,-172.5 512.27,-165.5"/>
</g>
<!-- ErrorDashboardComponent -->
<g id="node2" class="node">
<title>ErrorDashboardComponent</title>
<polygon fill="#8dd3c7" stroke="black" points="643.51,-122 640.51,-126 619.51,-126 616.51,-122 472.49,-122 472.49,-86 643.51,-86 643.51,-122"/>
<text text-anchor="middle" x="558" y="-99.8" font-family="Times,serif" font-size="14.00">ErrorDashboardComponent</text>
</g>
<!-- ErrorDashboardComponent&#45;&gt;AdminModule -->
<g id="edge2" class="edge">
<title>ErrorDashboardComponent&#45;&gt;AdminModule</title>
<path fill="none" stroke="black" d="M487.23,-122.11C487.23,-122.11 487.23,-140.99 487.23,-140.99"/>
<polygon fill="black" stroke="black" points="483.73,-140.99 487.23,-150.99 490.73,-140.99 483.73,-140.99"/>
</g>
<!-- PerformanceDashboardComponent -->
<g id="node3" class="node">
<title>PerformanceDashboardComponent</title>
<polygon fill="#8dd3c7" stroke="black" points="454.99,-122 451.99,-126 430.99,-126 427.99,-122 241.01,-122 241.01,-86 454.99,-86 454.99,-122"/>
<text text-anchor="middle" x="348" y="-99.8" font-family="Times,serif" font-size="14.00">PerformanceDashboardComponent</text>
</g>
<!-- PerformanceDashboardComponent&#45;&gt;AdminModule -->
<g id="edge3" class="edge">
<title>PerformanceDashboardComponent&#45;&gt;AdminModule</title>
<path fill="none" stroke="black" d="M429.26,-122.11C429.26,-122.11 429.26,-140.99 429.26,-140.99"/>
<polygon fill="black" stroke="black" points="425.76,-140.99 429.26,-150.99 432.76,-140.99 425.76,-140.99"/>
</g>
<!-- TelemetryDashboardComponent -->
<g id="node4" class="node">
<title>TelemetryDashboardComponent</title>
<polygon fill="#8dd3c7" stroke="black" points="223.5,-122 220.5,-126 199.5,-126 196.5,-122 24.5,-122 24.5,-86 223.5,-86 223.5,-122"/>
<text text-anchor="middle" x="124" y="-99.8" font-family="Times,serif" font-size="14.00">TelemetryDashboardComponent</text>
</g>
<!-- TelemetryDashboardComponent&#45;&gt;AdminModule -->
<g id="edge4" class="edge">
<title>TelemetryDashboardComponent&#45;&gt;AdminModule</title>
<path fill="none" stroke="black" d="M124,-122.11C124,-141.34 124,-169 124,-169 124,-169 393.75,-169 393.75,-169"/>
<polygon fill="black" stroke="black" points="393.75,-172.5 403.75,-169 393.75,-165.5 393.75,-172.5"/>
</g>
</g>
</svg>
