<?xml version="1.0" encoding="UTF-8" standalone="no"?>
<!DOCTYPE svg PUBLIC "-//W3C//DTD SVG 1.1//EN"
 "http://www.w3.org/Graphics/SVG/1.1/DTD/svg11.dtd">
<!-- Generated by graphviz version 2.47.0 (20210316.0004)
 -->
<!-- Title: dependencies Pages: 1 -->
<svg width="565pt" height="211pt"
 viewBox="0.00 0.00 565.00 211.00" xmlns="http://www.w3.org/2000/svg" xmlns:xlink="http://www.w3.org/1999/xlink">
<g id="graph0" class="graph" transform="scale(1 1) rotate(0) translate(4 207)">
<title>dependencies</title>
<polygon fill="white" stroke="transparent" points="-4,4 -4,-207 561,-207 561,4 -4,4"/>
<text text-anchor="start" x="257.51" y="-42.4" font-family="Times-12" font-weight="bold" font-size="14.00">Legend</text>
<polygon fill="#ffffb3" stroke="transparent" points="44.5,-10 44.5,-30 64.5,-30 64.5,-10 44.5,-10"/>
<text text-anchor="start" x="68.13" y="-15.4" font-family="Times-12" font-size="14.00"> &#160;Declarations</text>
<polygon fill="#8dd3c7" stroke="transparent" points="157.5,-10 157.5,-30 177.5,-30 177.5,-10 157.5,-10"/>
<text text-anchor="start" x="181.23" y="-15.4" font-family="Times-12" font-size="14.00"> &#160;Module</text>
<polygon fill="#80b1d3" stroke="transparent" points="243.5,-10 243.5,-30 263.5,-30 263.5,-10 243.5,-10"/>
<text text-anchor="start" x="267.28" y="-15.4" font-family="Times-12" font-size="14.00"> &#160;Bootstrap</text>
<polygon fill="#fdb462" stroke="transparent" points="340.5,-10 340.5,-30 360.5,-30 360.5,-10 340.5,-10"/>
<text text-anchor="start" x="364.17" y="-15.4" font-family="Times-12" font-size="14.00"> &#160;Providers</text>
<polygon fill="#fb8072" stroke="transparent" points="436.5,-10 436.5,-30 456.5,-30 456.5,-10 436.5,-10"/>
<text text-anchor="start" x="460.23" y="-15.4" font-family="Times-12" font-size="14.00"> &#160;Exports</text>
<g id="clust1" class="cluster">
<title>cluster_FavoritesModule</title>
<polygon fill="none" stroke="black" stroke-dasharray="1,5" points="8,-70 8,-195 549,-195 549,-70 8,-70"/>
</g>
<g id="clust3" class="cluster">
<title>cluster_FavoritesModule_imports</title>
<polygon fill="none" stroke="black" points="16,-78 16,-130 541,-130 541,-78 16,-78"/>
</g>
<!-- FavoritesListComponent -->
<g id="node1" class="node">
<title>FavoritesListComponent</title>
<polygon fill="#8dd3c7" stroke="black" points="532.71,-122 529.71,-126 508.71,-126 505.71,-122 377.29,-122 377.29,-86 532.71,-86 532.71,-122"/>
<text text-anchor="middle" x="455" y="-99.8" font-family="Times,serif" font-size="14.00">FavoritesListComponent</text>
</g>
<!-- FavoritesModule -->
<g id="node4" class="node">
<title>FavoritesModule</title>
<polygon fill="#8dd3c7" stroke="black" points="334.65,-187 331.65,-191 310.65,-191 307.65,-187 223.35,-187 223.35,-151 334.65,-151 334.65,-187"/>
<text text-anchor="middle" x="279" y="-164.8" font-family="Times,serif" font-size="14.00">FavoritesModule</text>
</g>
<!-- FavoritesListComponent&#45;&gt;FavoritesModule -->
<g id="edge1" class="edge">
<title>FavoritesListComponent&#45;&gt;FavoritesModule</title>
<path fill="none" stroke="black" d="M455,-122.11C455,-141.34 455,-169 455,-169 455,-169 344.69,-169 344.69,-169"/>
<polygon fill="black" stroke="black" points="344.69,-165.5 334.69,-169 344.69,-172.5 344.69,-165.5"/>
</g>
<!-- FavoritesPageComponent -->
<g id="node2" class="node">
<title>FavoritesPageComponent</title>
<polygon fill="#8dd3c7" stroke="black" points="359.14,-122 356.14,-126 335.14,-126 332.14,-122 198.86,-122 198.86,-86 359.14,-86 359.14,-122"/>
<text text-anchor="middle" x="279" y="-99.8" font-family="Times,serif" font-size="14.00">FavoritesPageComponent</text>
</g>
<!-- FavoritesPageComponent&#45;&gt;FavoritesModule -->
<g id="edge2" class="edge">
<title>FavoritesPageComponent&#45;&gt;FavoritesModule</title>
<path fill="none" stroke="black" d="M279,-122.11C279,-122.11 279,-140.99 279,-140.99"/>
<polygon fill="black" stroke="black" points="275.5,-140.99 279,-150.99 282.5,-140.99 275.5,-140.99"/>
</g>
<!-- FavoritesRoutingModule -->
<g id="node3" class="node">
<title>FavoritesRoutingModule</title>
<polygon fill="#8dd3c7" stroke="black" points="180.27,-122 177.27,-126 156.27,-126 153.27,-122 23.73,-122 23.73,-86 180.27,-86 180.27,-122"/>
<text text-anchor="middle" x="102" y="-99.8" font-family="Times,serif" font-size="14.00">FavoritesRoutingModule</text>
</g>
<!-- FavoritesRoutingModule&#45;&gt;FavoritesModule -->
<g id="edge3" class="edge">
<title>FavoritesRoutingModule&#45;&gt;FavoritesModule</title>
<path fill="none" stroke="black" d="M102,-122.11C102,-141.34 102,-169 102,-169 102,-169 213,-169 213,-169"/>
<polygon fill="black" stroke="black" points="213,-172.5 223,-169 213,-165.5 213,-172.5"/>
</g>
</g>
</svg>
